<?xml version="1.0" encoding="UTF-8" standalone="no"?>
<svg
   xmlns:dc="http://purl.org/dc/elements/1.1/"
   xmlns:cc="http://creativecommons.org/ns#"
   xmlns:rdf="http://www.w3.org/1999/02/22-rdf-syntax-ns#"
   xmlns:svg="http://www.w3.org/2000/svg"
   xmlns="http://www.w3.org/2000/svg"
   xmlns:sodipodi="http://sodipodi.sourceforge.net/DTD/sodipodi-0.dtd"
   xmlns:inkscape="http://www.inkscape.org/namespaces/inkscape"
   height="512pt"
   viewBox="0 0 512.00011 512"
   width="512pt"
   version="1.1"
   id="svg4"
   sodipodi:docname="041-candy.svg"
   inkscape:version="0.92.2 5c3e80d, 2017-08-06">
  <metadata
     id="metadata10">
    <rdf:RDF>
      <cc:Work
         rdf:about="">
        <dc:format>image/svg+xml</dc:format>
        <dc:type
           rdf:resource="http://purl.org/dc/dcmitype/StillImage" />
      </cc:Work>
    </rdf:RDF>
  </metadata>
  <defs
     id="defs8" />
  <sodipodi:namedview
     pagecolor="#ffffff"
     bordercolor="#666666"
     borderopacity="1"
     objecttolerance="10"
     gridtolerance="10"
     guidetolerance="10"
     inkscape:pageopacity="0"
     inkscape:pageshadow="2"
     inkscape:window-width="1459"
     inkscape:window-height="793"
     id="namedview6"
     showgrid="false"
     inkscape:zoom="0.9777961"
     inkscape:cx="341.33333"
     inkscape:cy="341.33333"
     inkscape:window-x="382"
     inkscape:window-y="1261"
     inkscape:window-maximized="0"
     inkscape:current-layer="svg4" />
  <path
     style="fill:#f4c430;fill-opacity:0.94117647;stroke:none;stroke-width:2.04477191;stroke-miterlimit:4;stroke-dasharray:2.044772, 2.04477200000000003;stroke-dashoffset:0;stroke-opacity:1"
     d="m 289.80362,158.51507 c -21.86367,6.17261 -43.02899,15.96043 -60.97591,29.98031 -6.08822,5.67255 -1.93267,15.14295 -3.15108,22.49141 -0.23927,62.28539 0.52177,125.10238 -0.50137,187.05971 0.43174,3.13386 -0.49067,6.54673 -4.48233,5.60891 -5.07933,0.57846 -5.09791,-4.72923 -4.82674,-8.30207 -1.44023,-61.0849 0.3025,-122.53458 -1.54721,-183.70938 -1.76239,-5.89393 -8.99731,-4.06327 -11.62132,0.0879 -48.85581,50.7472 -64.6398,130.1694 -39.42021,195.89454 9.34437,24.67307 23.81764,47.53839 42.22067,66.4161 4.95995,4.05735 10.21299,-1.98075 9.27136,-7.1456 1.08399,-9.66938 -0.0975,-19.50558 1.6029,-28.74705 2.4338,-3.70635 10.28218,-2.93891 8.68703,2.75052 0.93921,16.63775 0.28459,33.67805 1.49328,50.38902 3.08578,6.06442 10.85477,8.38025 16.19028,12.43439 14.96578,8.39811 30.72687,16.5722 47.41257,20.46452 7.81977,-0.78912 4.56764,-10.46477 5.35662,-15.78499 0.83253,-115.01061 0.38543,-230.02573 0.50362,-345.03836 -0.3831,-3.10692 -3.04067,-5.44898 -6.21216,-4.84987 z"
     id="path833"
     inkscape:connector-curvature="0"
     transform="scale(0.75000006)" />
  <path
     style="fill:#f4c430;fill-opacity:0.94117647;stroke:none;stroke-width:2.04477191;stroke-miterlimit:4;stroke-dasharray:2.044772, 2.04477200000000003;stroke-dashoffset:0;stroke-opacity:1"
     d="m 127.42674,450.79187 c -36.933135,-0.23261 -75.144038,7.52503 -106.243792,28.23033 -5.622641,2.45451 -7.131215,10.68987 -1.238436,13.80856 18.538428,10.18054 37.31963,21.47016 50.386917,38.65568 13.296425,16.77029 20.851914,37.93443 37.863601,51.74813 16.33326,14.4548 37.93303,21.68376 52.86548,37.94395 12.8215,12.21358 20.6059,28.07124 29.71621,42.81004 2.99017,5.12948 10.061,3.37159 12.26051,-1.5061 25.01207,-36.53083 30.53519,-82.56418 28.80961,-125.81507 -1.35466,-9.81922 0.32631,-20.79628 -4.47035,-29.77639 -4.09835,-5.31783 -11.02885,-0.39979 -11.82108,4.95774 -6.39597,18.0858 -13.56863,35.87704 -25.35596,51.21131 -3.59586,4.70486 -11.89701,-2.99609 -7.10903,-7.05709 12.10155,-18.51218 21.1298,-39.30462 26.07651,-60.78318 -0.80487,-6.11636 -7.52258,-9.67776 -11.65272,-13.90647 -6.51499,-5.83626 -15.02841,0.42116 -22.03305,1.9887 -16.30828,5.05781 -31.31515,13.2248 -45.89914,21.92509 -5.50244,2.73603 -9.11235,-7.71384 -3.13205,-9.56991 16.19463,-11.74628 35.32154,-18.26948 53.46647,-25.81339 6.13373,-4.87092 -1.13921,-12.16971 -5.55498,-15.2787 -13.73954,-4.91487 -28.86787,-3.16272 -43.23139,-3.78889 -1.23444,0.005 -2.46889,0.0104 -3.70333,0.0157 z"
     id="path831"
     inkscape:connector-curvature="0"
     transform="scale(0.75000006)" />
  <path
     style="fill:#f4c430;fill-opacity:0.94117647;stroke:none;stroke-width:2.04477191;stroke-miterlimit:4;stroke-dasharray:2.044772, 2.04477200000000003;stroke-dashoffset:0;stroke-opacity:1"
     d="m 486.21552,15.661522 c -7.45484,2.055635 -10.03003,10.954316 -14.11399,16.710847 -18.12879,34.275224 -23.01852,73.996991 -20.91973,112.298491 1.07853,10.23511 -1.24881,21.64364 3.91503,30.98057 3.53271,4.31186 11.95947,9.9848 15.834,3.07611 7.07561,-20.0038 14.69292,-40.36714 28.46803,-56.89214 3.77456,-4.23586 11.19499,3.74679 6.336,7.5185 -12.65706,19.05569 -21.72665,40.49554 -27.49588,62.51056 0.68011,6.70771 8.61178,10.04224 12.37552,15.24776 5.85862,5.80288 13.65466,-1.5124 20.22791,-2.42348 17.52122,-5.58424 33.77069,-14.35915 49.27376,-24.08158 4.89914,-3.4026 9.97252,5.25824 4.81591,8.17767 -16.88228,13.66201 -37.34752,21.04569 -57.41547,28.47004 -6.2842,3.09415 -2.63307,11.98188 3.59346,12.1886 21.33772,3.64591 43.23237,2.41157 64.77219,1.57602 31.12858,-2.90383 63.41532,-10.51021 88.53815,-30.01609 5.3462,-4.00421 0.98079,-10.48345 -3.92904,-12.31445 C 637.51339,176.22702 615.24264,160.22357 602.40231,136.83738 590.98482,113.95877 572.82241,94.120055 549.76347,82.545297 525.8298,69.98336 508.03457,48.473056 495.54573,24.88587 c -2.52307,-3.371857 -4.25788,-9.250101 -9.33021,-9.224348 z"
     id="path829"
     inkscape:connector-curvature="0"
     transform="scale(0.75000006)" />
  <path
     style="fill:#f4c430;fill-opacity:0.94117647;stroke:none;stroke-width:2.04477191;stroke-miterlimit:4;stroke-dasharray:2.044772, 2.04477200000000003;stroke-dashoffset:0;stroke-opacity:1"
     d="m 390.045,159.06637 c -5.47672,4.88145 -1.63718,13.36095 -2.78049,19.82097 0,113.46733 0,226.93466 0,340.402 1.56866,8.23494 10.48216,3.46288 15.65323,1.87241 18.5253,-6.52247 36.19782,-15.88901 51.98143,-27.4295 3.69304,-5.94327 0.71138,-13.99726 1.67284,-20.77638 0.004,-59.84973 0.007,-119.69947 0.009,-179.5492 1.22656,-3.49528 7.50552,-5.57719 9.09252,-1.72382 2.48931,27.48674 0.85599,55.27737 1.36228,82.93923 0.22664,32.14973 -0.40491,64.34381 0.9468,96.46415 1.4119,6.26691 9.19571,4.46665 11.82903,0.11567 28.12597,-29.70203 46.40212,-68.97033 50.26853,-109.7352 1.15761,-23.3858 1.63799,-47.29595 -5.48907,-69.89371 -8.53647,-31.42424 -25.11327,-60.91536 -48.32296,-83.79615 -5.08133,-3.57235 -9.83158,2.46733 -8.82884,7.47855 -0.94095,14.09937 0.36923,28.50339 -1.38625,42.42641 -2.5564,3.68353 -9.90394,2.21899 -8.84283,-2.98023 -1.47547,-21.04388 0.11336,-42.3132 -0.97566,-63.28352 -2.8778,-6.03143 -10.58683,-8.23805 -15.82166,-12.1785 -14.92862,-8.29235 -30.28778,-16.54327 -47.00209,-20.55869 -1.12192,0.1285 -2.24383,0.25701 -3.36575,0.38551 z"
     id="path827"
     inkscape:connector-curvature="0"
     transform="scale(0.75000006)" />
  <path
     style="fill:#f4c430;fill-opacity:0.94117647;stroke:none;stroke-width:5.78348875;stroke-miterlimit:4;stroke-dasharray:5.78348859, 5.78348859000000015;stroke-dashoffset:0;stroke-opacity:1"
     d="m 336.72655,151.85537 c -10.83166,0.0298 -29.32879,-1.5199 -27.97175,14.45762 -3.99942,119.0822 -0.96123,238.33794 -1.92655,357.48589 8.64871,10.14709 26.78839,6.01074 39.79096,6.43503 9.53568,-1.23288 26.79354,2.48369 26.19209,-12.37854 3.71908,-105.81557 1.39261,-211.83538 1.33333,-317.72317 -2.52277,-14.68729 3.88802,-34.03289 -6.64406,-45.98305 -9.82513,-2.9803 -20.61262,-2.00981 -30.77402,-2.29378 z"
     id="path817"
     inkscape:connector-curvature="0"
     transform="scale(0.75000006)" />
  <path
     d="m505.007812 134.125c-11.5-8.191406-17.574218-7.761719-31.078124-21.261719-17.414063-17.414062-12.175782-23.679687-31.652344-43.15625-19.40625-19.40625-25.753906-14.253906-43.144532-31.644531-13.570312-13.570312-12.9375-19.382812-21.261718-31.070312-6.246094-8.769532-19.003906-9.425782-25.355469-1.199219-27.777344 35.976562-27.527344 88.035156-25.351563 113.609375-56.917968-29.738282-130.46875-21.8125-180.019531 27.738281-49.609375 49.609375-57.449219 123.195313-27.71875 180.058594-8-.667969-18.613281-1.144531-30.546875-.648438-34.707031 1.460938-62.660156 10.195313-83.085937 25.960938-8.273438 6.390625-7.519531 19.144531 1.203125 25.359375 11.636718 8.289062 30.859375 13.265625 45.566406 41.039062 9.453125 17.847656 22.566406 31.007813 40.519531 40.515625 27.777344 14.710938 32.757813 33.941407 41.046875 45.578125 6.203125 8.707032 18.953125 9.488282 25.355469 1.199219 27.777344-35.976563 27.527344-88.039063 25.351563-113.613281 56.917968 29.738281 130.46875 21.816406 180.019531-27.738282 49.613281-49.613281 57.445312-123.195312 27.722656-180.050781 38.613281 3.210938 83.078125-1.734375 113.628906-25.320312 8.273438-6.390625 7.519531-19.144531-1.199219-25.355469zm-347.257812 23.625.457031-.457031v142.980469c0 8.222656 15 8.390624 15 0v-155.894532c13.667969-10.183594 28.96875-17.679687 45.238281-22.21875v267.675782c-16.269531-4.539063-31.570312-12.035157-45.238281-22.21875v-37.074219c0-9.914063-15-9.929688-15 0v24.160156c-54.839843-54.359375-54.832031-142.578125-.457031-196.953125zm-10.0625 339.230469c-4.671875 1.753906-8.621094-30.171875-47.585938-50.808594-15.238281-8.070313-26.203124-19.023437-34.28125-34.28125-20.148437-38.050781-50.785156-42.421875-50.859374-47.503906 22.238281-17.167969 52.636718-21.894531 74.222656-22.832031 18.492187-.808594 33.898437.953124 40.011718 1.808593 1.480469 2.140625 3.019532 4.246094 4.613282 6.316407-12.113282 3.710937-27.941406 9.617187-42.082032 19.613281-8.179687 5.785156.632813 17.925781 8.660157 12.25 14.996093-10.605469 32.195312-16.035157 44.140625-19.367188 2.886718 3.027344 5.890625 5.9375 9.019531 8.734375-3.082031 11.457032-8.5 28.957032-19.476563 44.242188-5.835937 8.125 6.4375 16.75 12.183594 8.75 10.539063-14.671875 16.414063-30.660156 20.003906-42.78125.785157.566406 1.578126 1.128906 2.375 1.679687 1.9375 13.921875 8.539063 75.949219-20.945312 114.179688zm85.757812-103.847657v-274.269531c14.910157-2.417969 30.3125-2.417969 45.238282.019531v274.226563c-14.90625 2.4375-30.308594 2.445313-45.238282.023437zm120.804688-38.886718c-.109375.109375-.21875.21875-.328125.324218v-133.59375c0-9.914062-15-9.929687-15 0v146.542969c-13.664063 10.207031-28.964844 17.722657-45.238281 22.28125v-267.605469c16.273437 4.558594 31.574218 12.074219 45.238281 22.28125v46.484376c0 9.910156 15 9.929687 15 0v-33.535157c.109375.105469.21875.214844.328125.324219 54.300781 54.296875 54.304688 142.1875 0 196.496094zm28.554688-185.613282c-.550782-.796874-1.113282-1.589843-1.679688-2.378906 12.734375-3.765625 29.652344-10.027344 44.929688-21.585937 7.90625-5.984375-1.128907-17.953125-9.054688-11.964844-15.742188 11.914063-34.117188 17.621094-46.089844 20.84375-2.792968-3.125-5.699218-6.125-8.734375-9.023437 3.464844-12.417969 9.140625-30.355469 20.511719-45.71875 5.894531-7.96875-6.148438-16.902344-12.058594-8.921876-10.832031 14.632813-17.074218 31.269532-20.949218 43.921876-2.070313-1.59375-4.175782-3.128907-6.3125-4.609376-5.109376-36.582031-1.75-84.726562 20.945312-114.179687 3-1.121094 7.164062 16.605469 24.210938 33.652344 19.429687 19.429687 25.734374 14.234375 43.148437 31.648437 17.414063 17.414063 12.179687 23.675782 31.652344 43.152344 10.148437 10.148438 17.171875 13.871094 23.371093 17.15625 2.570313 1.363281 10.320313 5.363281 10.34375 6.984375-29.523437 22.792969-77.671874 26.125-114.234374 21.023437zm0 0"
     id="path2" />
</svg>
