<?xml version="1.0" encoding="UTF-8" standalone="no"?>
<svg
   xmlns:dc="http://purl.org/dc/elements/1.1/"
   xmlns:cc="http://creativecommons.org/ns#"
   xmlns:rdf="http://www.w3.org/1999/02/22-rdf-syntax-ns#"
   xmlns:svg="http://www.w3.org/2000/svg"
   xmlns="http://www.w3.org/2000/svg"
   xmlns:sodipodi="http://sodipodi.sourceforge.net/DTD/sodipodi-0.dtd"
   xmlns:inkscape="http://www.inkscape.org/namespaces/inkscape"
   height="512pt"
   viewBox="0 0 512 512"
   width="512pt"
   version="1.1"
   id="svg14"
   sodipodi:docname="046-donuts.svg"
   inkscape:version="0.92.2 5c3e80d, 2017-08-06">
  <metadata
     id="metadata20">
    <rdf:RDF>
      <cc:Work
         rdf:about="">
        <dc:format>image/svg+xml</dc:format>
        <dc:type
           rdf:resource="http://purl.org/dc/dcmitype/StillImage" />
        <dc:title />
      </cc:Work>
    </rdf:RDF>
  </metadata>
  <defs
     id="defs18" />
  <sodipodi:namedview
     pagecolor="#ffffff"
     bordercolor="#666666"
     borderopacity="1"
     objecttolerance="10"
     gridtolerance="10"
     guidetolerance="10"
     inkscape:pageopacity="0"
     inkscape:pageshadow="2"
     inkscape:window-width="1596"
     inkscape:window-height="969"
     id="namedview16"
     showgrid="false"
     inkscape:zoom="0.48889805"
     inkscape:cx="164.17645"
     inkscape:cy="95.883384"
     inkscape:window-x="309"
     inkscape:window-y="1009"
     inkscape:window-maximized="0"
     inkscape:current-layer="svg14" />
  <path
     style="fill:#fff8e7;fill-opacity:1;stroke:none;stroke-width:2.89174438;stroke-miterlimit:4;stroke-dasharray:2.89174428, 2.89174428000000017;stroke-dashoffset:0;stroke-opacity:1"
     d="m 578.4881,462.29119 c -19.46065,0.006 -34.94834,19.0096 -33.07999,37.99875 -1.9306,18.15038 3.17825,38.84776 -9.96239,53.79786 -16.52894,22.66052 -54.57805,22.81984 -70.7853,-0.22881 -9.2298,-11.32145 -9.20002,-26.33972 -10.43504,-40.0904 -3.57317,-22.9297 -33.37889,-35.68309 -52.27966,-21.95197 -12.34651,7.53274 -16.3223,22.51303 -15.48771,36.18285 -1.22885,21.87748 0.49186,43.93694 -2.64788,65.61376 -6.45135,18.56436 -25.63915,32.82655 -45.74287,29.95015 -19.39857,0.004 -36.92424,-16.65997 -40.64979,-35.29196 -2.70394,-26.70369 0.74186,-53.97802 -4.04801,-80.48023 -7.05235,-20.2191 -35.52612,-28.77916 -52.01978,-14.38983 -14.22906,9.26013 -13.53855,27.84456 -15.61299,42.39548 -4.14378,29.73565 -43.30972,46.00969 -67.52826,28.35029 -15.19842,-9.77773 -22.15942,-28.14759 -20.95694,-45.71665 -1.79891,-15.74676 2.85158,-35.50426 -10.94418,-47.11669 -16.34839,-16.03979 -47.306823,-9.38591 -54.864411,12.42656 -2.805986,8.34338 -3.530486,17.26062 -7.449153,25.18079 1.388299,11.08885 11.182781,19.1562 16.785311,28.41243 63.588883,85.11445 170.891033,136.38793 277.257213,129.05922 51.00799,-1.86973 101.31339,-17.37884 145.66778,-42.37531 42.37634,-24.43907 79.37213,-58.12258 106.63369,-98.82212 4.19017,-6.78793 13.22594,-14.57974 6.07408,-22.53694 -3.80164,-11.2065 -4.23135,-24.80878 -14.86158,-32.40678 -6.38918,-5.33055 -14.74949,-8.19334 -23.06214,-7.96045 z"
     id="path841"
     inkscape:connector-curvature="0"
     transform="scale(0.74999998)" />
  <path
     style="fill:#000000;fill-opacity:1;stroke:none;stroke-width:0.36146805;stroke-miterlimit:4;stroke-dasharray:0.36146804, 0.36146804;stroke-dashoffset:0;stroke-opacity:1"
     d="m 581.8554,555.88349 c -1.38706,0.79991 -2.25848,3.67928 -3.39149,4.78001 -4.88335,5.74296 -16.76671,14.63689 -22.17348,19.85912 -0.81313,0.85718 6.511,-3.18757 7.53742,-3.34605 5.20349,-0.13619 6.38574,9.79137 5.98235,15.02402 -0.0926,0.89674 3.87386,-2.8119 5.06109,-3.13842 2.38749,-1.72438 4.44227,-3.90514 6.6611,-5.84809 5.3108,-4.91485 10.52447,-9.96076 15.31912,-15.38355 0.88694,-0.91836 -0.34997,-2.24087 -1.39936,-1.69809 -3.56859,1.12707 -7.60796,-0.2388 -9.96328,-3.13595 -1.48947,-1.67061 -2.30682,-3.87083 -2.26942,-6.10664 -0.0801,-0.67106 -0.67659,-1.16497 -1.36405,-1.00636 z"
     id="path823"
     inkscape:connector-curvature="0"
     transform="scale(0.74999998)"
     sodipodi:nodetypes="cccccccccccc" />
  <path
     d="m173.308594 256c0 45.597656 37.09375 82.691406 82.691406 82.691406s82.691406-37.09375 82.691406-82.691406-37.09375-82.691406-82.691406-82.691406-82.691406 37.09375-82.691406 82.691406zm82.691406-67.691406c37.324219 0 67.691406 30.367187 67.691406 67.691406s-30.367187 67.691406-67.691406 67.691406-67.691406-30.367187-67.691406-67.691406 30.367187-67.691406 67.691406-67.691406zm0 0"
     id="path2" />
  <path
     d="M 98.828125,73.296875 C 142.48828,35.703125 198.30859,15 256,15 c 64.375,0 124.89453,25.066406 170.41406,70.589844 28.75781,28.757816 49.35547,63.503906 60.6211,101.429686 -10.47657,3.60938 -19.55079,10.38281 -26.07422,19.58984 -8.1211,11.46094 -11.3711,25.41016 -9.14844,39.28516 3.60156,22.46094 21.00781,39.90234 42.79297,44.00781 -3.69922,26.03516 -11.625,51.23828 -23.40625,74.61328 -3.58985,-16.83593 -18.57813,-29.5039 -36.47266,-29.5039 -20.55859,0 -37.28515,16.72656 -37.28515,37.28515 v 22.72266 c 0,12.28906 -10,22.28906 -22.28907,22.28906 -12.28906,0 -22.28906,-10 -22.28906,-22.28906 v -4.71094 c 0,-20.55859 -16.72656,-37.28515 -37.28906,-37.28515 -20.5586,0 -37.28516,16.72656 -37.28516,37.28515 v 44.27735 c 0,12.28906 -10,22.28906 -22.28906,22.28906 -12.28906,0 -22.28906,-10 -22.28906,-22.28906 v -44.27735 c 0,-20.55859 -16.72657,-37.28515 -37.28516,-37.28515 -20.5625,0 -37.28906,16.72656 -37.28906,37.28515 v 4.71094 c 0,12.28906 -10,22.28906 -22.28906,22.28906 -12.28907,0 -22.28907,-10 -22.28907,-22.28906 v -22.72265 c 0,-20.5625 -16.726559,-37.28516 -37.285152,-37.28516 -17.957032,0 -32.988282,12.75391 -36.507813,29.67969 C 23.914062,331.40625 15,294.38672 15,256 15,195.80469 37.3125,138.16797 77.832031,93.710938 M 66.746094,83.605469 C 23.703125,130.83203 0,192.05859 0,256 0,324.37891 26.628906,388.66797 74.980469,437.01953 123.33203,485.37109 187.62109,512 256,512 c 63.90234,0 125.09766,-23.67578 172.30859,-66.67187 7.33203,-6.67188 -2.75781,-17.77735 -10.09765,-11.08985 C 373.76562,474.71094 316.16016,497 256,497 191.625,497 131.10547,471.93359 85.585938,426.41016 72.03125,412.85547 60.289062,397.96875 50.480469,382.04688 c 2.8125,-2.33594 4.503906,-5.83204 4.503906,-9.75 0,-12.28907 10,-22.28907 22.289063,-22.28907 12.289062,0 22.289062,10 22.289062,22.28907 v 22.72265 c 0,20.5586 16.72656,37.28516 37.28516,37.28516 20.5625,0 37.28906,-16.72656 37.28906,-37.28516 v -4.71094 c 0,-12.28906 10,-22.28906 22.28906,-22.28906 12.28906,0 22.28906,10 22.28906,22.28906 v 44.27735 c 0,20.5625 16.72657,37.28515 37.28516,37.28515 20.5625,0 37.28906,-16.72656 37.28906,-37.28515 v -44.27735 c 0,-12.28906 10,-22.28906 22.28906,-22.28906 12.28907,0 22.28516,10 22.28516,22.28906 v 4.71094 c 0,20.5586 16.73047,37.28516 37.28906,37.28516 20.5625,0 37.28907,-16.72656 37.28907,-37.28516 v -22.72265 c 0,-12.28907 10,-22.28907 22.28906,-22.28907 12.28906,0 22.28515,10 22.28515,22.28907 0,3.88671 1.66797,7.35937 4.44141,9.69921 -6.70703,10.9375 -14.3125,21.37891 -22.77734,31.20313 -6.54688,7.60156 4.96093,17.22656 11.36718,9.78906 C 535.27344,324.03516 534.06641,172.03125 437.01953,74.980469 388.66797,26.628906 324.37891,0 256,0 194.71484,0 135.42187,21.992188 89.042969,61.929688 M 466.625,243.51953 c -2.89844,-18.08984 7.66016,-35.56641 24.24609,-41.91797 5.61328,24.45313 7.26953,49.38672 5.38282,73.33203 -15.125,-3.33203 -27.10547,-15.65234 -29.62891,-31.41406 z"
     id="path4"
     inkscape:connector-curvature="0"
     sodipodi:nodetypes="csccccccssssssssssssssssssscsccsssccsccsssssssssssssssssssssccccsccccc" />
  <path
     d="m286.515625 54.863281c0-16.824219-13.6875-30.515625-30.515625-30.515625s-30.515625 13.691406-30.515625 30.515625c0 16.828125 13.6875 30.519531 30.515625 30.519531s30.515625-13.691406 30.515625-30.519531zm-46.03125 0c0-8.554687 6.960937-15.515625 15.515625-15.515625s15.515625 6.960938 15.515625 15.515625c0 8.558594-6.960937 15.519531-15.515625 15.519531s-15.515625-6.960937-15.515625-15.519531zm0 0"
     id="path6" />
  <path
     d="m366.683594 196.839844c14.8125 0 26.863281-12.054688 26.863281-26.863282 0-14.8125-12.050781-26.863281-26.863281-26.863281s-26.863282 12.050781-26.863282 26.863281c0 14.808594 12.050782 26.863282 26.863282 26.863282zm0-38.726563c6.539062 0 11.863281 5.320313 11.863281 11.863281 0 6.539063-5.324219 11.859376-11.863281 11.859376-6.542969 0-11.863282-5.320313-11.863282-11.859376 0-6.542968 5.320313-11.863281 11.863282-11.863281zm0 0"
     id="path8" />
  <path
     d="m90.605469 293.929688c0 15.371093 12.507812 27.878906 27.878906 27.878906s27.878906-12.507813 27.878906-27.878906c0-15.375-12.507812-27.878907-27.878906-27.878907s-27.878906 12.503907-27.878906 27.878907zm40.757812 0c0 7.101562-5.777343 12.878906-12.878906 12.878906s-12.878906-5.777344-12.878906-12.878906c0-7.101563 5.777343-12.878907 12.878906-12.878907s12.878906 5.777344 12.878906 12.878907zm0 0"
     id="path10" />
  <path
     d="m128.164062 106.863281c-28.71875 0-52.082031 23.363281-52.082031 52.082031s23.363281 52.082032 52.082031 52.082032 52.082032-23.363282 52.082032-52.082032-23.363282-52.082031-52.082032-52.082031zm0 89.164063c-20.449218 0-37.082031-16.632813-37.082031-37.082032 0-20.445312 16.632813-37.082031 37.082031-37.082031 20.445313 0 37.082032 16.636719 37.082032 37.082031 0 20.449219-16.636719 37.082032-37.082032 37.082032zm0 0"
     id="path12" />
  <path
     style="fill:none;stroke:#000000;stroke-width:0.75px;stroke-linecap:butt;stroke-linejoin:miter;stroke-opacity:1"
     d="m 419.11863,434.44067 c 7.05952,-6.60038 14.84599,-12.78535 19.52543,-20.74577"
     id="path817"
     inkscape:connector-curvature="0"
     sodipodi:nodetypes="cc" />
  <path
     style="fill:none;stroke:#000000;stroke-width:0.75px;stroke-linecap:butt;stroke-linejoin:miter;stroke-opacity:1"
     d="m 426.84745,446.23728 c 7.87688,-6.84699 18.05405,-17.24844 24.13559,-24.81356"
     id="path819"
     inkscape:connector-curvature="0"
     sodipodi:nodetypes="cc" />
  <path
     style="fill:#7b3f00;fill-opacity:1;stroke:none;stroke-width:2.89174438;stroke-miterlimit:4;stroke-dasharray:2.89174428, 2.89174428000000017;stroke-dashoffset:0;stroke-opacity:1"
     d="m 169.21408,158.31944 c -28.37679,0.0858 -54.76528,26.29074 -51.58742,55.20617 -1.26517,24.10816 18.84817,46.80499 42.14675,50.97462 21.1258,3.96073 44.66144,-4.06051 56.06497,-22.92373 14.20662,-20.39759 10.96197,-50.39379 -6.77401,-67.69773 -10.18957,-10.66209 -25.26394,-15.92332 -39.85029,-15.55933 z"
     id="path829"
     inkscape:connector-curvature="0"
     transform="scale(0.74999998)" />
  <path
     style="fill:#7b3f00;fill-opacity:1;stroke:none;stroke-width:2.89174438;stroke-miterlimit:4;stroke-dasharray:2.89174428, 2.89174428000000017;stroke-dashoffset:0;stroke-opacity:1"
     d="m 340.41465,48.316619 c -19.04452,-1.005671 -29.87192,22.955881 -20.33051,38.067797 9.32413,17.880994 39.35018,14.341194 44.80508,-4.937854 6.88064,-15.549364 -7.61349,-34.848685 -24.47457,-33.129943 z"
     id="path831"
     inkscape:connector-curvature="0"
     transform="scale(0.74999998)" />
  <path
     style="fill:#7b3f00;fill-opacity:1;stroke:none;stroke-width:2.89174438;stroke-miterlimit:4;stroke-dasharray:2.89174428, 2.89174428000000017;stroke-dashoffset:0;stroke-opacity:1"
     d="m 487.83838,206.51436 c -16.56992,-0.30406 -26.82226,24.52646 -12.42656,34.4661 10.64118,12.27527 33.84904,3.64425 33.28531,-12.84463 1.71869,-12.46233 -8.74911,-22.17727 -20.85875,-21.62147 z"
     id="path833"
     inkscape:connector-curvature="0"
     transform="scale(0.74999998)" />
  <path
     style="fill:#7b3f00;fill-opacity:1;stroke:none;stroke-width:2.89174438;stroke-miterlimit:4;stroke-dasharray:2.89174428, 2.89174428000000017;stroke-dashoffset:0;stroke-opacity:1"
     d="m 652.36662,265.15278 c -16.98722,5.64697 -29.94488,22.07836 -33.77401,39.33615 -1.83769,16.63997 -1.10088,35.43689 11.67254,47.91952 8.16478,8.73513 19.00317,16.66696 30.91786,18.53246 8.50888,-4.18884 5.02165,-16.20166 6.14147,-23.90395 -0.60366,-26.21911 -1.54093,-53.02616 -8.64995,-78.35311 -1.20224,-2.26291 -3.72164,-3.7757 -6.30791,-3.53107 z"
     id="path837"
     inkscape:connector-curvature="0"
     transform="scale(0.74999998)" />
  <path
     style="fill:#7b3f00;fill-opacity:1;stroke:none;stroke-width:2.89174438;stroke-miterlimit:4;stroke-dasharray:2.89174428, 2.89174428000000017;stroke-dashoffset:0;stroke-opacity:1"
     d="m 157.16889,370.35899 c -17.63842,-0.13458 -27.59768,23.79229 -15.31921,36.29661 11.03467,12.16925 36.14323,6.69311 37.26553,-11.18362 2.20132,-13.21239 -8.35674,-25.78808 -21.94632,-25.11299 z"
     id="path839"
     inkscape:connector-curvature="0"
     transform="scale(0.74999998)" />
  <path
     style="fill:#318ce7;fill-opacity:1;stroke:none;stroke-width:2.89174438;stroke-miterlimit:4;stroke-dasharray:2.89174428, 2.89174428000000017;stroke-dashoffset:0;stroke-opacity:1"
     d="M 334.94854,15.50306 C 263.28413,16.980966 191.86009,42.561409 136.4768,88.206449 106.53107,114.32274 78.457093,143.32026 59.115214,178.35333 18.44629,247.25887 6.8839163,331.46693 22.513405,409.49411 c 6.162498,25.52608 13.540603,51.29516 25.994465,74.49765 5.013311,6.72626 11.981591,-0.74972 13.80791,-6.17514 7.455207,-15.2565 23.611748,-27.23908 40.96328,-25.52542 19.45853,-1.51788 37.89699,13.73607 42.73728,32.07626 4.03885,18.10998 0.29484,37.68175 4.99436,55.78814 6.00758,12.78205 19.38436,22.35249 33.94067,20.22882 16.73893,-0.11242 30.67349,-14.87972 31.05367,-31.43786 0.60287,-15.39409 3.81907,-32.26449 16.64972,-42.31638 17.73943,-16.66877 48.97663,-13.86491 63.47095,5.63313 13.99244,14.23369 8.93248,35.34348 10.22679,53.30755 1.00941,15.75383 -1.81465,32.49319 3.68361,47.57061 6.79021,14.63014 23.527,24.44576 39.59606,19.46045 15.9373,-3.63016 26.95341,-19.61353 25.32901,-35.78968 1.42627,-23.19766 -0.4986,-46.61277 2.81505,-69.60015 6.65736,-20.9512 29.47412,-35.59285 51.33334,-30.53389 21.0526,3.16954 36.88273,23.4857 36.35593,44.54519 0.12694,14.89798 6.19612,31.68699 21.53107,36.85876 19.76896,8.47871 47.49216,-5.61183 46.54517,-28.6375 2.63564,-17.543 -1.41336,-35.93608 5.77403,-52.50939 7.58045,-15.46905 24.03076,-26.34972 41.59387,-24.69996 18.76026,-0.92545 35.08927,13.59711 41.90049,30.25646 2.11048,5.83686 10.70321,6.35383 12.38983,-0.0678 13.4831,-29.67785 24.23953,-61.10296 28.24294,-93.53108 -1.94581,-10.0364 -14.93818,-8.52707 -21.63559,-13.81072 -25.9865,-13.2116 -40.33578,-44.50771 -33.52543,-72.83334 4.0427,-20.96303 19.15637,-38.76645 38.80509,-46.87854 7.34031,-2.67177 6.98144,-10.91691 3.8137,-16.74209 C 614.63112,128.35391 515.73266,40.797796 401.01668,20.894481 379.25089,16.879395 357.07749,15.071811 334.94854,15.50306 Z m 7.113,21.751412 c 18.27559,0.591113 35.9853,16.081297 34.40242,35.21736 2.89499,25.289138 -28.04408,44.886808 -50.18207,33.163998 -19.90529,-8.743478 -27.17617,-36.476664 -13.42091,-53.531075 6.62914,-9.220863 17.68034,-15.435658 29.20056,-14.850283 z M 172.10392,147.31944 c 37.03234,-0.089 68.78024,36.66336 62.77683,73.33334 -4.29052,35.94497 -43.06075,63.63241 -78.34463,54.14406 -30.36387,-6.28026 -52.81842,-36.75083 -49.70427,-67.63941 1.01452,-32.90117 32.84626,-60.70313 65.27207,-59.83799 z m 316.47458,48.67514 c 21.59093,-0.92904 39.04885,24.52655 27.99999,43.89266 -8.22126,19.01765 -36.46416,23.73363 -50.14407,7.83333 -13.05782,-13.0596 -10.17944,-36.69219 5.42373,-46.50565 4.69513,-3.79251 10.7585,-5.34508 16.72035,-5.22034 z m -149.7599,40.23447 c 33.63273,-0.94487 67.24799,14.74966 86.69774,42.4774 19.32733,24.78557 25.38989,58.61087 17.94068,88.64972 -11.34703,45.13586 -55.48258,80.67887 -101.99153,78.95076 -52.41896,2.1004 -100.85542,-42.64616 -104.7593,-94.03511 -4.65542,-37.33413 13.74562,-75.53688 43.99377,-96.97498 16.83148,-12.07666 37.32882,-19.15443 58.11864,-19.06779 z M 158.06437,360.1104 c 23.02116,-1.92901 40.07941,26.84338 28.66949,46.48588 -9.5895,20.01002 -40.90392,24.01208 -53.90113,5.11017 -13.4357,-15.2911 -6.7768,-41.14153 11.53107,-49.20621 4.28559,-1.88979 9.06388,-2.35007 13.70057,-2.38984 z"
     id="path827"
     inkscape:connector-curvature="0"
     transform="scale(0.74999998)" />
</svg>
