<?xml version="1.0" encoding="UTF-8" standalone="no"?>
<svg
   xmlns:dc="http://purl.org/dc/elements/1.1/"
   xmlns:cc="http://creativecommons.org/ns#"
   xmlns:rdf="http://www.w3.org/1999/02/22-rdf-syntax-ns#"
   xmlns:svg="http://www.w3.org/2000/svg"
   xmlns="http://www.w3.org/2000/svg"
   xmlns:sodipodi="http://sodipodi.sourceforge.net/DTD/sodipodi-0.dtd"
   xmlns:inkscape="http://www.inkscape.org/namespaces/inkscape"
   height="455.3656pt"
   viewBox="-59 0 338.10632 455.36687"
   width="338.10632pt"
   version="1.1"
   id="svg16"
   sodipodi:docname="023-gummy bear-red.svg"
   inkscape:version="0.92.2 5c3e80d, 2017-08-06">
  <metadata
     id="metadata22">
    <rdf:RDF>
      <cc:Work
         rdf:about="">
        <dc:format>image/svg+xml</dc:format>
        <dc:type
           rdf:resource="http://purl.org/dc/dcmitype/StillImage" />
        <dc:title></dc:title>
      </cc:Work>
    </rdf:RDF>
  </metadata>
  <defs
     id="defs20" />
  <sodipodi:namedview
     pagecolor="#ffffff"
     bordercolor="#666666"
     borderopacity="1"
     objecttolerance="10"
     gridtolerance="10"
     guidetolerance="10"
     inkscape:pageopacity="0"
     inkscape:pageshadow="2"
     inkscape:window-width="1309"
     inkscape:window-height="887"
     id="namedview18"
     showgrid="false"
     fit-margin-top="0"
     fit-margin-left="0"
     fit-margin-right="0"
     fit-margin-bottom="0"
     inkscape:zoom="0.9777961"
     inkscape:cx="223.87422"
     inkscape:cy="303.58117"
     inkscape:window-x="700"
     inkscape:window-y="824"
     inkscape:window-maximized="0"
     inkscape:current-layer="svg16" />
  <path
     style="fill:#50c878;fill-opacity:1;stroke:none;stroke-width:1.53358328;stroke-miterlimit:4;stroke-dasharray:1.53358329, 1.53358329;stroke-dashoffset:0;stroke-opacity:1"
     d="m 109.08458,267.90916 c -19.743495,0.0927 -37.541908,16.59229 -39.586098,36.11049 -0.516632,16.76211 -1.249354,33.64167 0.338573,50.35903 2.148088,13.69044 16.316461,23.16308 29.792948,21.87093 10.701477,-0.40059 21.631267,0.80143 32.180937,-1.29886 11.28589,-3.68032 19.86945,-14.91131 18.8985,-27.01512 -0.0995,-16.11981 0.95811,-32.36422 -0.83726,-48.40732 -4.22906,-18.46692 -21.76057,-32.30824 -40.7876,-31.61915 z"
     id="path879"
     inkscape:connector-curvature="0" />
  <path
     style="fill:#50c878;fill-opacity:1;stroke:none;stroke-width:1.53358328;stroke-miterlimit:4;stroke-dasharray:1.53358329, 1.53358329;stroke-dashoffset:0;stroke-opacity:1"
     d="m -8.0797359,229.67885 c -18.6035901,-0.0155 -35.1935101,15.55928 -36.8460601,33.99964 -2.92158,21.66024 17.23188,43.5042 39.2145701,41.12167 19.3836699,0.28938 36.3159339,-17.37268 36.1074929,-36.58539 0.95704,-19.66805 -15.917633,-37.74495 -35.5232529,-38.47872 -0.98258,-0.0674 -1.96842,-0.071 -2.95275,-0.0572 z"
     id="path875"
     inkscape:connector-curvature="0" />
  <path
     style="fill:#50c878;fill-opacity:1;stroke:none;stroke-width:1.53358328;stroke-miterlimit:4;stroke-dasharray:1.53358329, 1.53358329;stroke-dashoffset:0;stroke-opacity:1"
     d="m -7.9583959,341.29567 c -19.5156901,0.0113 -37.0957601,16.14596 -39.2010901,35.47229 -2.3629,14.76192 6.80591,27.8748 12.29277,40.82178 3.34258,8.68562 8.96343,16.56535 17.17209,21.22101 8.8012501,5.90763 20.4435701,6.07148 30.2289,2.79249 14.89861,-5.46375 24.754025,-21.43302 22.94358,-37.20261 -1.320131,-12.8849 -0.712067,-26.36675 -5.34975,-38.64529 -6.04485,-15.1255 -21.9217899,-24.95113 -38.0864999,-24.45967 z"
     id="path877"
     inkscape:connector-curvature="0" />
  <path
     style="fill:#50c878;fill-opacity:1;stroke:none;stroke-width:1.53358328;stroke-miterlimit:4;stroke-dasharray:1.53358329, 1.53358329;stroke-dashoffset:0;stroke-opacity:1"
     d="m 226.38674,341.27918 c -20.85095,0.0217 -39.59031,18.33875 -39.85047,39.23273 -0.66842,11.74079 -2.71516,23.64063 -1.23526,35.36275 3.60307,18.93077 24.54515,32.1172 43.16042,26.82154 10.60541,-2.34897 19.64726,-9.93605 23.74099,-20.00556 5.24434,-11.01229 11.66942,-21.74883 14.72921,-33.62019 3.53321,-19.31306 -8.389,-40.49105 -27.56076,-45.98005 -4.19274,-1.30013 -8.5958,-1.91242 -12.98413,-1.81122 z"
     id="path881"
     inkscape:connector-curvature="0" />
  <path
     style="fill:#50c878;fill-opacity:1;stroke:none;stroke-width:1.53358328;stroke-miterlimit:4;stroke-dasharray:1.53358329, 1.53358329;stroke-dashoffset:0;stroke-opacity:1"
     d="m 226.67138,229.67885 c -18.91852,-0.0887 -35.65667,16.11459 -36.9719,34.84608 -2.3732,21.6835 18.13093,43.07402 40.06682,40.22464 19.1053,-0.0572 35.75381,-17.72143 35.24475,-36.72356 0.85079,-17.65743 -12.58084,-34.30533 -29.90531,-37.5247 -2.76935,-0.58823 -5.60343,-0.86637 -8.43436,-0.82246 z"
     id="path883"
     inkscape:connector-curvature="0" />
  <path
     style="fill:#50c878;fill-opacity:1;stroke:none;stroke-width:1.53358328;stroke-miterlimit:4;stroke-dasharray:1.53358329, 1.53358329;stroke-dashoffset:0;stroke-opacity:1"
     d="m 176.0382,201.33607 c -26.11315,14.98409 -56.90784,18.60339 -86.324199,15.0785 -16.07352,-1.98131 -31.383823,-6.94666 -45.39429,-15.0006 -5.350635,-1.02131 -9.03133,4.63707 -13.186379,7.25086 -5.645358,5.13053 -12.387378,9.76764 -15.998328,16.56163 1.18352,5.02616 7.36446,6.383 10.19411,10.49307 8.980146,9.39648 14.184426,22.47402 12.658082,35.52144 -1.192924,21.88593 -20.770302,41.15967 -42.8043719,41.53261 -3.94637,-0.0558 -10.7318101,-0.12193 -9.8377801,5.62645 0.83582,4.58277 -2.01996,11.1336 2.18266,14.25805 7.0096401,1.41412 14.7509201,0.66818 21.6163501,3.57846 18.3189199,6.13272 31.2064209,24.2539 32.1554959,43.39358 0.796555,11.76494 2.871721,23.41358 1.775233,35.19137 -0.86014,4.41007 -3.27445,11.51024 2.702595,13.39762 11.422314,4.48294 23.620056,6.67825 35.894718,6.1789 24.563294,-0.0848 49.168434,0.49031 73.704144,-0.74375 7.42559,-1.32091 15.01414,-3.31418 21.6597,-6.89431 3.89721,-3.9252 -0.64543,-9.27771 -0.12135,-13.9639 -0.0972,-14.83684 1.21249,-29.6757 3.68686,-44.33812 5.98144,-21.32277 27.86635,-37.09887 50.10883,-35.01237 6.24819,-1.47634 2.92569,-9.39791 3.74978,-13.99985 1.27605,-5.15062 -3.84095,-7.32365 -8.13344,-6.58287 -19.46032,0.18662 -37.16196,-14.08912 -42.696,-32.46691 -2.35281,-8.03141 -2.15611,-16.88824 -0.25468,-24.9975 3.29844,-11.14137 10.82108,-20.89827 20.33691,-27.38132 3.62516,-4.73018 -3.7485,-8.17933 -6.18408,-11.58185 -6.18962,-5.64065 -12.30783,-12.08445 -19.9715,-15.49319 -0.50635,0.13133 -1.01272,0.26266 -1.51907,0.394 z m -66.71093,58.77542 c 15.85262,-0.18977 31.36645,7.73072 40.45897,20.7309 6.50631,8.3963 9.13655,19.14239 8.763,29.52326 -0.13235,15.6852 0.98864,31.4986 -0.88089,47.10213 -3.85545,16.09227 -20.19759,27.77182 -36.66454,26.60979 -11.46932,-0.0907 -23.206624,0.86623 -34.479291,-1.53889 -15.015597,-4.46064 -26.474706,-19.80385 -24.966032,-35.65655 0.04687,-15.85049 -0.347229,-31.80766 0.204015,-47.59047 4.759439,-19.55481 21.362663,-36.27953 41.671318,-38.7754 1.95328,-0.26183 3.92304,-0.38984 5.89345,-0.40477 z"
     id="path873"
     inkscape:connector-curvature="0" />
  <path
     style="fill:#50c878;fill-opacity:1;stroke:none;stroke-width:1.53358328;stroke-miterlimit:4;stroke-dasharray:1.53358329, 1.53358329;stroke-dashoffset:0;stroke-opacity:1"
     d="m 187.3759,11.73055 c -10.70934,0.24271 -22.23919,4.4741 -28.72479,13.28675 -2.04602,5.6328 5.69506,7.04775 8.70655,9.84923 18.04198,11.41439 32.41637,28.78335 41.73038,48.03781 2.0018,4.43488 7.58229,2.5855 9.57893,-0.85092 14.73082,-15.05052 14.89153,-41.30417 0.42546,-56.59418 -7.89445,-8.9565 -19.82834,-13.9299 -31.71653,-13.72869 z"
     id="path867"
     inkscape:connector-curvature="0" />
  <path
     style="fill:#50c878;fill-opacity:1;stroke:none;stroke-width:1.53358328;stroke-miterlimit:4;stroke-dasharray:1.53358329, 1.53358329;stroke-dashoffset:0;stroke-opacity:1"
     d="M 31.178279,11.52681 C 9.8449541,11.4129 -9.0472659,30.22503 -9.8415159,51.37208 c -0.6595601,13.04505 5.23815,26.37126 15.34965,34.58391 5.9808699,1.39933 6.7608199,-6.6269 9.4515799,-10.20063 C 25.062354,56.36131 41.36927,40.57851 60.574229,30.2592 65.108149,26.58578 59.780727,21.55699 56.388505,19.49676 49.152245,14.21053 40.153164,11.28553 31.178279,11.52681 Z"
     id="path869"
     inkscape:connector-curvature="0" />
  <path
     style="fill:#50c878;fill-opacity:1;stroke:none;stroke-width:1.53358328;stroke-miterlimit:4;stroke-dasharray:1.53358329, 1.53358329;stroke-dashoffset:0;stroke-opacity:1"
     d="M 107.15951,26.22927 C 73.410747,26.5988 40.811089,45.94191 24.289634,75.36776 c -16.1432799,27.41565 -19.8332099,63.66309 -3.33245,91.79819 13.796093,24.72988 41.772926,37.52401 68.772357,41.52116 16.624669,1.76088 33.677719,1.52953 50.098159,-1.78138 18.81066,-4.15689 37.18346,-12.59031 50.08151,-27.28479 20.48913,-21.70698 24.22194,-54.8314 15.43505,-82.50851 -9.97919,-32.93481 -37.43294,-60.71854 -71.43447,-68.14461 -8.75221,-2.03726 -17.7684,-2.93626 -26.75028,-2.73855 z m -47.17554,79.31004 c 4.758238,0.42559 4.909529,7.94246 -0.03893,8.36546 -5.741514,0.58513 -5.478721,-8.86726 0.03893,-8.36546 z m 100.44839,0.10337 c 4.46867,-0.40691 6.10436,6.3192 1.82021,7.87108 -5.21519,2.7745 -8.8501,-6.57775 -1.82021,-7.87108 z m -49.40323,33.85583 c 5.17723,2.57267 2.14808,9.38279 3.17899,14.03281 0.77922,6.01153 -0.80975,13.13996 3.01271,18.29794 4.82241,5.20057 12.66123,5.0359 18.22154,8.76246 2.22558,3.47105 -2.47714,7.97222 -5.92504,5.51155 -6.50676,-1.71645 -12.75852,-4.46883 -18.30324,-8.17502 -4.62823,-1.14517 -7.47511,4.65387 -12.016335,5.32302 -4.139869,1.14942 -8.498972,3.69335 -12.806571,3.21005 -3.022404,-1.67342 -3.022884,-6.35735 0.693632,-7.07109 6.845689,-2.66848 16.622804,-4.31688 18.305424,-12.91372 1.98739,-8.34441 -0.0147,-17.18174 1.59399,-25.4724 0.90373,-1.27435 2.61084,-1.46001 4.0449,-1.5056 z"
     id="path871"
     inkscape:connector-curvature="0" />
  <path
     d="m 134.44198,175.70699 c -4.30469,-2.10547 -16.80469,-2.03515 -16.80469,-13.02343 -0.004,-1.98438 0,7.17968 -0.008,-19.37891 0,-9.91797 -15,-9.92969 -15,0 0,15.00391 -0.004,19.41016 0,19.70703 -0.32422,10.6875 -12.613278,10.64453 -16.804688,12.69531 -8.17187,2.52735 -6.35937,14.66797 2.21094,14.66797 1.9375,0 2.61719,-0.5625 11.5625,-3.22656 4.085938,-1.26563 7.664058,-3.46094 10.535158,-6.31641 2.86718,2.85547 6.44531,5.05078 10.53515,6.31641 l 9.33985,2.88672 c 9.47265,2.93359 13.91797,-11.39063 4.43359,-14.32813 z m 0,0"
     id="path2"
     inkscape:connector-curvature="0" />
  <path
     d="m 241.52792,53.47262 c 0,-29.39063 -23.91406,-53.30469 -53.30469,-53.30469 -16.66016,0 -31.95312,7.55078 -42.00781,20.47266 C 123.23104,12.72262 97.637292,12.49215 74.000582,20.61719 63.949792,7.60156 48.617762,0 31.883392,0 2.4927641,0 -21.421296,23.91016 -21.421296,53.30469 c 0,18.11328 9.0039,34.62891 23.8671901,44.44141 -9,34.45312 -2.08203998,72.66406 27.1757779,97.52734 -9.460938,6.94141 -17.953128,15.05078 -25.3593779,24.21875 -30.9921901,-7.46094 -60.8515601,16.12891 -60.8515601,47.94922 0,20.58594 12.67969,38.26953 30.64453,45.64062 v 20.17578 c -27.92187,10.89844 -40.98047,43.32032 -28.03516,70.65625 l 11.61719,24.53516 c 9.6875,20.45313 32.6328101,31.22266 54.70703,25.29688 10.25001,-2.75 18.898438,-8.73438 25.011718,-16.64063 13.66797,6.10938 28.64063,9.31641 43.69141,9.31641 h 58.054688 c 15.03906,0 30,-3.20313 43.66015,-9.30078 6.11328,7.89843 14.75391,13.875 25,16.625 22.10547,5.9375 45.03516,-4.875 54.70313,-25.29297 l 11.62109,-24.53906 c 12.94141,-27.32813 -0.10937,-59.72657 -27.99219,-70.63672 v -20.19532 c 17.96094,-7.37109 30.64454,-25.05468 30.64454,-45.64062 0,-27.19141 -22.1211,-49.3125 -49.3125,-49.3125 -3.97266,0 -7.83594,0.47266 -11.53907,1.36328 -7.40625,-9.16797 -15.89843,-17.27734 -25.35937,-24.21875 29.17187,-24.78906 36.15234,-63 27.20703,-97.40625 14.81641,-9.82031 23.79297,-26.32031 23.79297,-44.39453 z M -6.4212959,53.30465 c 0,-21.12109 17.1835899,-38.30469 38.3046879,-38.30469 10.65234,0 20.51562,4.28906 27.65234,11.77344 -23.28515,11.92578 -41.843748,31.82812 -52.0429679,56.07813 -8.73828,-7.1836 -13.91406,-17.90626 -13.91406,-29.54688 z M -41.589266,267.44137 c 0,-18.92188 15.39062,-34.31641 34.3125001,-34.31641 18.9179699,0 34.3124999,15.39453 34.3124999,34.31641 0,18.91797 -15.39453,34.3125 -34.3124999,34.3125 -18.9218801,0 -34.3125001,-15.39453 -34.3125001,-34.3125 z m 50.0429701,171.8164 c -14.96094,4.01954 -30.6289101,-3.22656 -37.2578101,-17.22656 l -11.6211,-24.53906 c -9.88281,-20.87109 1.57031,-45.56641 23.83203,-51.53906 3.17578,-0.85547 6.40625,-1.27344 9.6171901,-1.27344 18.9843799,0 35.2265679,14.55859 36.8242179,33.94922 l 2.23047,27.05859 c 1.26953,15.4375 -8.664058,29.55469 -23.6249979,33.57031 z m 252.0742159,-41.76562 -11.6211,24.53906 c -6.6289,14 -22.29687,21.2461 -37.25781,17.22656 -14.96094,-4.01562 -24.89453,-18.13281 -23.62109,-33.57031 l 2.22656,-27.05859 c 1.89844,-23.01563 24.18359,-38.65235 46.44141,-32.67578 22.30469,5.98437 33.69922,30.70703 23.83203,51.53906 z m 1.21094,-130.05078 c 0,18.91797 -15.39454,34.3125 -34.31641,34.3125 -18.91797,0 -34.3125,-15.39453 -34.3125,-34.3125 0,-18.92188 15.39453,-34.31641 34.3125,-34.31641 18.92187,0 34.31641,15.39453 34.31641,34.31641 z m -60.33204,-41.87891 c -13.97656,8.71485 -23.29687,24.22656 -23.29687,41.87891 0,27.1875 22.125,49.3125 49.3125,49.3125 1.23437,0 2.45703,-0.0469 3.67187,-0.13672 v 13.21484 c -28.28906,-2.19922 -53.42578,18.88282 -55.78906,47.5625 l -2.22656,27.0586 c -0.55859,6.76953 0.35156,13.36718 2.48828,19.44531 -11.44922,4.93359 -23.92187,7.51953 -36.46484,7.51953 H 81.047452 c -12.55469,0 -25.04297,-2.58984 -36.50391,-7.53516 2.13282,-6.07421 3.03907,-12.66406 2.48438,-19.42578 l -2.23047,-27.05859 c -2.36719,-28.75391 -27.558588,-49.73828 -55.742188,-47.57031 v -13.21094 c 1.2109401,0.0898 2.4335901,0.13672 3.6679701,0.13672 27.1914099,0 49.3124979,-22.1211 49.3124979,-49.3125 0,-17.64844 -9.32031,-33.16406 -23.292968,-41.87891 6.99219,-8.04687 14.968748,-15.09765 23.828128,-21.05859 18.52343,11.03516 42.00781,17.00781 67.503898,17.00781 25.4961,0 48.98047,-5.97656 67.50391,-17.00781 8.85547,5.96094 16.83594,13.01172 23.82812,21.05859 z m -22.64843,-40.03515 c -17.06641,13.53125 -41.45703,20.98437 -68.6836,20.98437 -27.230468,0 -51.621088,-7.45312 -68.683588,-20.98437 C -16.823646,139.37106 22.039644,29.61324 110.07479,29.61324 c 88.06641,0 126.84375,109.79688 68.6836,155.91407 z M 160.69198,26.81246 c 7.12891,-7.40234 16.94531,-11.64453 27.53125,-11.64453 21.12109,0 38.30469,17.18359 38.30469,38.30859 0,11.59375 -5.14453,22.29297 -13.83203,29.47266 C 202.5162,58.68356 183.97323,38.76168 160.69198,26.81246 Z m 0,0"
     id="path4"
     inkscape:connector-curvature="0" />
  <path
     d="m 110.07479,256.44137 c -28.933588,0 -52.468748,23.53515 -52.468748,52.46875 v 39.875 c 0,21.47265 17.46875,38.9414 38.94141,38.9414 h 27.050778 c 21.47266,0 38.94141,-17.46875 38.94141,-38.9414 v -39.875 c 0.004,-28.9336 -23.53516,-52.46875 -52.46485,-52.46875 z m 37.46875,92.33984 c 0,13.20313 -10.74218,23.94532 -23.94531,23.94532 H 96.547452 c -13.20313,0 -23.94141,-10.74219 -23.94141,-23.94532 v -39.875 c 0,-20.66015 16.8086,-37.46875 37.468748,-37.46875 20.66016,0 37.46875,16.8086 37.46875,37.46875 z m 0,0"
     id="path6"
     inkscape:connector-curvature="0" />
  <path
     d="m 168.50448,109.74996 c 0,4.35547 -3.53125,7.89063 -7.89062,7.89063 -4.35547,0 -7.88672,-3.53516 -7.88672,-7.89063 0,-4.35547 3.53125,-7.89062 7.88672,-7.89062 4.35937,0 7.89062,3.53515 7.89062,7.89062 z m 0,0"
     id="path12"
     inkscape:connector-curvature="0" />
  <path
     d="m 67.531822,109.74996 c 0,4.35547 -3.53515,7.89063 -7.89062,7.89063 -4.35547,0 -7.89063,-3.53516 -7.89063,-7.89063 0,-4.35547 3.53516,-7.89062 7.89063,-7.89062 4.35547,0 7.89062,3.53515 7.89062,7.89062 z m 0,0"
     id="path14"
     inkscape:connector-curvature="0" />
</svg>
