<?xml version="1.0" encoding="UTF-8" standalone="no"?>
<svg
   xmlns:dc="http://purl.org/dc/elements/1.1/"
   xmlns:cc="http://creativecommons.org/ns#"
   xmlns:rdf="http://www.w3.org/1999/02/22-rdf-syntax-ns#"
   xmlns:svg="http://www.w3.org/2000/svg"
   xmlns="http://www.w3.org/2000/svg"
   xmlns:sodipodi="http://sodipodi.sourceforge.net/DTD/sodipodi-0.dtd"
   xmlns:inkscape="http://www.inkscape.org/namespaces/inkscape"
   height="512pt"
   viewBox="-134 0 511 512"
   width="512pt"
   version="1.1"
   id="svg10"
   sodipodi:docname="028-ice-cream.svg"
   inkscape:version="0.92.2 5c3e80d, 2017-08-06">
  <metadata
     id="metadata16">
    <rdf:RDF>
      <cc:Work
         rdf:about="">
        <dc:format>image/svg+xml</dc:format>
        <dc:type
           rdf:resource="http://purl.org/dc/dcmitype/StillImage" />
      </cc:Work>
    </rdf:RDF>
  </metadata>
  <defs
     id="defs14" />
  <sodipodi:namedview
     pagecolor="#ffffff"
     bordercolor="#666666"
     borderopacity="1"
     objecttolerance="10"
     gridtolerance="10"
     guidetolerance="10"
     inkscape:pageopacity="0"
     inkscape:pageshadow="2"
     inkscape:window-width="1497"
     inkscape:window-height="1067"
     id="namedview12"
     showgrid="false"
     inkscape:zoom="0.48889805"
     inkscape:cx="341.33333"
     inkscape:cy="464.05831"
     inkscape:window-x="489"
     inkscape:window-y="798"
     inkscape:window-maximized="0"
     inkscape:current-layer="svg10" />
  <path
     style="fill:#a05a2c;fill-opacity:1;stroke:none;stroke-width:2.04477191;stroke-miterlimit:4;stroke-dasharray:2.044772, 2.04477200000000003;stroke-dashoffset:0;stroke-opacity:1"
     d="m 308.83798,503.16091 c -3.88783,6.89498 -0.79184,15.63933 -1.72775,23.30439 0.33253,38.67047 -0.0118,77.42907 0.74304,116.04454 5.13725,15.58197 21.50687,27.36609 38.16175,24.35428 15.03531,-2.06413 29.27681,-14.84293 28.64941,-30.81428 1.48593,-42.98692 0.35352,-86.02952 0.7135,-129.03779 -1.86558,-8.24822 -12.29018,-3.93665 -18.29489,-4.99969 -15.31845,0.23384 -30.79998,-0.46667 -46.01733,0.34646 -0.74257,0.26736 -1.48515,0.53473 -2.22773,0.80209 z"
     id="path4517"
     inkscape:connector-curvature="0"
     transform="matrix(0.74999998,0,0,0.74999998,-134.5,0)" />
  <path
     style="fill:#50c878;fill-opacity:1;stroke:none;stroke-width:5.78348875;stroke-miterlimit:4;stroke-dasharray:5.78348859, 5.78348859000000015;stroke-dashoffset:0;stroke-opacity:1"
     d="M 345.04492 16.716797 C 341.67994 16.742845 338.30442 16.906354 334.92383 17.210938 C 258.5374 17.032738 191.65475 90.034295 196.51562 166.01562 C 195.40369 259.53179 193.07702 353.23064 197.38477 446.66992 C 195.98242 471.25668 218.97059 490.53091 242.5957 488.97266 C 312.40781 489.71561 382.43256 491.49801 452.1543 487.77539 C 473.8843 484.46616 487.51329 461.34676 484.74805 440.30859 C 485.9109 340.46278 487.13957 240.48852 483.96289 140.68359 C 477.36227 72.15645 413.46628 16.187157 345.04492 16.716797 z M 342.31641 136.49805 C 342.65911 136.50484 343.00513 136.51875 343.35352 136.54297 C 358.69108 138.0722 370.42428 152.83616 365.83789 168.24414 C 364.49738 249.37281 368.6712 330.95868 363.18359 411.77539 C 362.04697 437.67386 319.77407 435.07459 317.45898 410.61719 C 312.92698 324.36657 316.9473 237.51843 316.52148 151.0293 C 323.76841 144.29135 331.69271 136.28733 342.31641 136.49805 z M 421.08008 136.80664 C 421.68115 136.8084 422.29014 136.84041 422.90625 136.9043 C 438.99262 136.22227 451.51617 152.83008 446.83203 168.24414 L 446.83203 416.10352 C 437.62936 436.6966 398.52778 433.49234 400.44922 408.39062 C 398.09742 345.40938 400.43402 282.35345 400.38672 219.3457 C 416.73197 219.94676 403.85153 250.00403 408.16211 262.73438 C 410.19928 312.2918 405.47233 362.58522 412.85547 411.71289 C 415.79145 425.42859 436.86047 419.70821 434.85547 406.67969 C 438.03657 322.38234 434.72605 237.92655 435.13867 153.57227 C 429.29644 142.76348 407.76612 148.6812 409.98047 162.64453 C 408.14536 169.77908 410.54467 183.3026 403.5625 187.29492 C 395.48835 178.19675 399.31578 162.31578 400.48242 151.00195 C 404.78243 143.54182 412.06406 136.78026 421.08008 136.80664 z M 260.33594 137.03125 C 260.95066 137.04264 261.5659 137.07615 262.17773 137.13086 C 280.7364 137.16106 286.96507 156.47409 284.06641 171.39648 C 285.01627 253.09947 283.74367 334.80646 283.41406 416.50977 C 274.33251 428.43789 255.38365 437.0835 243.41992 423.54883 C 231.60154 413.43312 233.70515 394.33659 235.62305 380.67383 C 244.8741 372.59785 244.87889 392.13469 244.55078 396.83789 C 242.99614 408.69717 254.64389 428.21725 267.46484 417.10352 C 278.0646 394.23361 272.0273 367.0191 274.11523 342.4707 C 272.72264 280.52971 276.26867 218.15462 270.39844 156.47656 C 267.95691 144.1311 247.87908 143.98178 248.39844 158.30664 C 242.14613 220.56387 245.18281 283.45229 242.96289 345.95117 C 229.91949 349.33546 237.47164 329.20289 234.78516 322.41016 C 234.21074 264.97392 232.45877 206.30597 237.26172 149.73047 C 241.73853 141.52197 251.11508 136.86044 260.33594 137.03125 z M 340.87305 147.51562 C 325.40443 150.99947 332.3853 173.02962 329.90625 184.31445 C 329.79618 259.8806 326.29468 335.68914 330.75977 411.13086 C 332.54759 423.35926 352.47896 423.43301 352.39258 409.99609 C 358.489 347.20822 354.45749 283.76771 355.17578 220.73633 C 353.47498 197.9715 357.18511 173.74613 351.47656 151.76367 C 348.90703 148.75216 344.76161 147.33467 340.87305 147.51562 z "
     transform="matrix(0.74999998,0,0,0.74999998,-134.5,0)"
     id="path4512" />
  <path
     d="m121.507812 0c-66.722656 0-121.007812 54.28125-121.007812 121.007812v211.460938c0 26.179688 21.296875 47.476562 47.476562 47.476562h36.332032v94.859376c0 20.507812 16.6875 37.195312 37.199218 37.195312 20.507813 0 37.195313-16.6875 37.195313-37.195312v-94.859376h36.335937c26.179688 0 47.476563-21.296874 47.476563-47.476562v-211.460938c0-66.726562-54.285156-121.007812-121.007813-121.007812zm22.195313 474.804688c0 12.238281-9.957031 22.195312-22.195313 22.195312-12.238281 0-22.199218-9.957031-22.199218-22.195312v-94.859376h44.394531zm83.8125-142.335938c0 17.90625-14.570313 32.476562-32.476563 32.476562h-147.0625c-17.910156 0-32.476562-14.566406-32.476562-32.476562v-211.460938c0-58.453124 47.554688-106.007812 106.007812-106.007812 58.453126 0 106.007813 47.554688 106.007813 106.007812zm0 0"
     id="path2" />
  <path
     d="m60.144531 98.410156c-12.171875 0-22.078125 9.90625-22.078125 22.078125v136.511719c0 9.914062 15 9.933594 15 0v-136.511719c0-9.367187 14.152344-9.355469 14.152344 0v183.972657c0 9.367187-14.152344 9.351562-14.152344 0v-16.691407c0-9.914062-15-9.929687-15 0v16.691407c0 12.171874 9.902344 22.074218 22.078125 22.074218 12.171875 0 22.074219-9.902344 22.074219-22.074218v-183.972657c0-12.171875-9.902344-22.078125-22.074219-22.078125zm0 0"
     id="path4" />
  <path
     d="m121.507812 98.410156c-12.171874 0-22.078124 9.90625-22.078124 22.078125v183.972657c0 12.171874 9.90625 22.074218 22.078124 22.074218 12.171876 0 22.074219-9.902344 22.074219-22.074218v-183.972657c0-12.171875-9.902343-22.078125-22.074219-22.078125zm7.074219 206.050782c0 9.367187-14.152343 9.351562-14.152343 0v-183.972657c0-9.367187 14.152343-9.355469 14.152343 0zm0 0"
     id="path6" />
  <path
     d="m160.796875 120.488281v15.691407c0 9.914062 15 9.929687 15 0v-15.691407c0-9.367187 14.148437-9.355469 14.148437 0v183.972657c0 9.367187-14.148437 9.351562-14.148437 0v-137.949219c0-9.917969-15-9.933594-15 0v137.949219c0 12.171874 9.902344 22.074218 22.074219 22.074218s22.074218-9.902344 22.074218-22.074218v-183.972657c0-12.171875-9.902343-22.078125-22.074218-22.078125s-22.074219 9.90625-22.074219 22.078125zm0 0"
     id="path8" />
</svg>
