<?xml version="1.0" encoding="UTF-8" standalone="no"?>
<!-- Generator: Adobe Illustrator 21.0.2, SVG Export Plug-In . SVG Version: 6.00 Build 0)  -->

<svg
   xmlns:dc="http://purl.org/dc/elements/1.1/"
   xmlns:cc="http://creativecommons.org/ns#"
   xmlns:rdf="http://www.w3.org/1999/02/22-rdf-syntax-ns#"
   xmlns:svg="http://www.w3.org/2000/svg"
   xmlns="http://www.w3.org/2000/svg"
   xmlns:sodipodi="http://sodipodi.sourceforge.net/DTD/sodipodi-0.dtd"
   xmlns:inkscape="http://www.inkscape.org/namespaces/inkscape"
   version="1.1"
   id="Layer_1"
   x="0px"
   y="0px"
   width="594.5px"
   height="254.1px"
   viewBox="0 0 594.5 254.1"
   style="enable-background:new 0 0 594.5 254.1;"
   xml:space="preserve"
   sodipodi:docname="Machine_learning_pipeline.svg"
   inkscape:version="0.92.2 5c3e80d, 2017-08-06"><metadata
     id="metadata480"><rdf:RDF><cc:Work
         rdf:about=""><dc:format>image/svg+xml</dc:format><dc:type
           rdf:resource="http://purl.org/dc/dcmitype/StillImage" /></cc:Work></rdf:RDF></metadata><defs
     id="defs478" /><sodipodi:namedview
     pagecolor="#ffffff"
     bordercolor="#666666"
     borderopacity="1"
     objecttolerance="10"
     gridtolerance="10"
     guidetolerance="10"
     inkscape:pageopacity="0"
     inkscape:pageshadow="2"
     inkscape:window-width="1431"
     inkscape:window-height="1039"
     id="namedview476"
     showgrid="false"
     inkscape:zoom="0.96888141"
     inkscape:cx="194.03819"
     inkscape:cy="147.69236"
     inkscape:window-x="758"
     inkscape:window-y="1011"
     inkscape:window-maximized="0"
     inkscape:current-layer="Layer_1" /><style
     type="text/css"
     id="style2">
	.Drop_x0020_Shadow{fill:none;}
	.Outer_x0020_Glow_x0020_5_x0020_pt{fill:none;}
	.Blue_x0020_Neon{fill:none;stroke:#8AACDA;stroke-width:7;stroke-linecap:round;stroke-linejoin:round;}
	.Chrome_x0020_Highlight{fill:url(#SVGID_1_);stroke:#FFFFFF;stroke-width:0.3629;stroke-miterlimit:1;}
	.Jive_GS{fill:#FFDD00;}
	.Alyssa_GS{fill:#A6D0E4;}
	.st0{fill:#307EB2;}
	.st1{fill:none;stroke:#307EB2;stroke-width:8;stroke-miterlimit:10;}
	.st2{fill:#0E4C87;}
	.st3{fill:#FFFFFF;stroke:#484748;stroke-width:0.9981;stroke-miterlimit:10;}
	.st4{fill:#E3E1DC;}
	.st5{fill:none;stroke:#FFFFFF;stroke-width:6;stroke-miterlimit:10;}
	.st6{fill:#FFFFFF;stroke:#484748;stroke-width:0.9994;stroke-miterlimit:10;}
	.st7{fill:#FFFFFF;stroke:#484748;stroke-width:1.0008;stroke-miterlimit:10;}
	.st8{fill:#333333;}
</style><linearGradient
     id="SVGID_1_"
     gradientUnits="userSpaceOnUse"
     x1="-174.8492"
     y1="-99.8313"
     x2="-174.8492"
     y2="-100.8313"><stop
       offset="0"
       style="stop-color:#656565"
       id="stop4" /><stop
       offset="0.618"
       style="stop-color:#1B1B1B"
       id="stop6" /><stop
       offset="0.6292"
       style="stop-color:#545454"
       id="stop8" /><stop
       offset="0.9831"
       style="stop-color:#3E3E3E"
       id="stop10" /></linearGradient><polyline
     class="st0"
     points="239,75.7 241.7,57.5 223.4,54.7 "
     id="polyline13"
     style="stroke:#000000;stroke-opacity:1;fill:#000000;fill-opacity:1" /><line
     class="st1"
     x1="234.7"
     y1="62.6"
     x2="164.5"
     y2="114.4"
     id="line15"
     style="stroke:#000000;stroke-opacity:1;fill:#000000;fill-opacity:1" /><polyline
     class="st0"
     points="239,153 241.7,171.3 223.4,174.1 "
     id="polyline17"
     style="stroke:#000000;stroke-opacity:1;fill:#000000;fill-opacity:1" /><line
     class="st1"
     x1="234.7"
     y1="166.1"
     x2="164.5"
     y2="114.4"
     id="line19"
     style="stroke:#000000;stroke-opacity:1;fill:#000000;fill-opacity:1" /><polyline
     class="st0"
     points="445.4,58.6 457.4,46.6 445.4,34.6 "
     id="polyline21"
     style="stroke:#000000;stroke-opacity:1;fill:#000000;fill-opacity:1" /><line
     class="st1"
     x1="449.4"
     y1="46.6"
     x2="369.4"
     y2="46.6"
     id="line23"
     style="stroke:#000000;stroke-opacity:1;fill:#000000;fill-opacity:1" /><polyline
     class="st0"
     points="453.2,139.1 456,120.8 437.7,118 "
     id="polyline25"
     style="fill:#000000;fill-opacity:1;stroke:#000000;stroke-opacity:1" /><line
     class="st1"
     x1="448.9"
     y1="126"
     x2="378.8"
     y2="177.7"
     id="line27"
     style="fill:#000000;fill-opacity:1;stroke:#000000;stroke-opacity:1" /><polyline
     class="st0"
     points="453.2,216.3 456,234.6 437.7,237.4 "
     id="polyline29"
     style="fill:#000000;fill-opacity:1;stroke:#000000;stroke-opacity:1" /><line
     class="st1"
     x1="448.9"
     y1="229.5"
     x2="378.8"
     y2="177.7"
     id="line31"
     style="fill:#000000;fill-opacity:1;stroke:#000000;stroke-opacity:1" /><g
     id="g39"
     style="stroke:#000000;stroke-opacity:1;fill:#000000;fill-opacity:1"><g
       id="g37"
       style="stroke:#000000;stroke-opacity:1;fill:#000000;fill-opacity:1"><path
         class="st2"
         d="M445.4,58.6"
         id="path33"
         style="stroke:#000000;stroke-opacity:1;fill:#000000;fill-opacity:1" /><path
         class="st2"
         d="M445.4,34.6"
         id="path35"
         style="stroke:#000000;stroke-opacity:1;fill:#000000;fill-opacity:1" /></g></g><path
     class="st3"
     d="M384.7,98.7h-127c-4.4,0-8-3.6-8-8v-82c0-4.4,3.6-8,8-8h127c4.4,0,8,3.6,8,8v82  C392.7,95.1,389.1,98.7,384.7,98.7z"
     id="path41" /><g
     id="g51"><g
       id="g49"><path
         class="st2"
         d="M453.2,139.1"
         id="path45" /><path
         class="st2"
         d="M437.7,118"
         id="path47" /></g></g><g
     id="g59"
     style="fill:#000000;fill-opacity:1;stroke:#000000;stroke-opacity:1"><g
       id="g57"
       style="fill:#000000;fill-opacity:1;stroke:#000000;stroke-opacity:1"><path
         class="st2"
         d="M453.2,216.3"
         id="path53"
         style="fill:#000000;fill-opacity:1;stroke:#000000;stroke-opacity:1" /><path
         class="st2"
         d="M437.7,237.4"
         id="path55"
         style="fill:#000000;fill-opacity:1;stroke:#000000;stroke-opacity:1" /></g></g><path
     class="st5"
     d="M238.2,60"
     id="path61" /><path
     class="st2"
     d="M239,75.7"
     id="path63" /><path
     class="st2"
     d="M223.4,54.7"
     id="path65" /><path
     class="st5"
     d="M238.2,168.7"
     id="path67" /><path
     class="st2"
     d="M239,153"
     id="path69" /><path
     class="st2"
     d="M223.4,174.1"
     id="path71" /><path
     class="st6"
     d="M585.7,75.7h-116c-4.4,0-8-3.6-8-8v-44c0-4.4,3.6-8,8-8h116c4.4,0,8,3.6,8,8v44  C593.7,72.1,590.1,75.7,585.7,75.7z"
     id="path73" /><path
     class="st6"
     d="M585.7,156.7h-116c-4.4,0-8-3.6-8-8v-44c0-4.4,3.6-8,8-8h116c4.4,0,8,3.6,8,8v44  C593.7,153.1,590.1,156.7,585.7,156.7z"
     id="path75" /><path
     class="st6"
     d="M585.7,253.7h-116c-4.4,0-8-3.6-8-8v-44c0-4.4,3.6-8,8-8h116c4.4,0,8,3.6,8,8v44  C593.7,250.1,590.1,253.7,585.7,253.7z"
     id="path77" /><path
     class="st7"
     d="M169.6,145.7H8.7c-4.4,0-8-3.6-8-8v-44c0-4.4,3.6-8,8-8h161c4.4,0,8,3.6,8,8v44  C177.7,142.1,174.1,145.7,169.6,145.7z"
     id="path79" /><path
     class="st3"
     d="M384.7,226.7h-127c-4.4,0-8-3.6-8-8v-82c0-4.4,3.6-8,8-8h127c4.4,0,8,3.6,8,8v82  C392.7,223.1,389.1,226.7,384.7,226.7z"
     id="path167" /><g
     id="g309"><g
       id="g307"><path
         class="st8"
         d="M21.7,112.6L21.7,112.6l-2.6,7.2h-0.8l-2.5-7.2h0l-1,7h-2.2l1.9-11.6h1.6l2.8,7.5l2.7-7.5h1.6l1.7,11.6h-2.2    L21.7,112.6z"
         id="path277" /><path
         class="st8"
         d="M29,117.2l-0.9,2.4h-2.3l4.4-11.6h1.7l4.3,11.6h-2.4l-0.9-2.4H29z M30.9,111.3L30.9,111.3l-1.3,4.1h2.7    L30.9,111.3z"
         id="path279" /><path
         class="st8"
         d="M45.3,111.3c-0.6-0.8-1.5-1.2-2.5-1.2c-2.1,0-3.3,2-3.3,3.9c0,1.9,1.3,3.8,3.3,3.8c0.9,0,1.9-0.5,2.5-1.2v2.6    c-0.8,0.4-1.6,0.7-2.6,0.7c-3.2,0-5.5-2.7-5.5-5.9c0-3.2,2.3-6,5.6-6c0.9,0,1.8,0.2,2.5,0.7V111.3z"
         id="path281" /><path
         class="st8"
         d="M54,112.8v-4.5h2.2v11.3H54v-5.1h-4.1v5.1h-2.2v-11.3h2.2v4.5H54z"
         id="path283" /><path
         class="st8"
         d="M60.9,119.6h-2.2v-11.3h2.2V119.6z"
         id="path285" /><path
         class="st8"
         d="M63.4,108H65l6,7.9h0v-7.6h2.2v11.5h-1.6l-6-7.9h0v7.7h-2.2V108z"
         id="path287" /><path
         class="st8"
         d="M77.9,110.2v2.5h3.5v1.9h-3.5v3.1h3.6v1.9h-5.8v-11.3h5.8v1.9H77.9z"
         id="path289" /><path
         class="st8"
         d="M91.3,117.7h3.1v1.9h-5.3v-11.3h2.2V117.7z"
         id="path291" /><path
         class="st8"
         d="M98.3,110.2v2.5h3.5v1.9h-3.5v3.1h3.6v1.9h-5.8v-11.3h5.8v1.9H98.3z"
         id="path293" /><path
         class="st8"
         d="M106.6,117.2l-0.9,2.4h-2.3l4.4-11.6h1.7l4.3,11.6h-2.4l-0.9-2.4H106.6z M108.5,111.3L108.5,111.3l-1.3,4.1    h2.7L108.5,111.3z"
         id="path295" /><path
         class="st8"
         d="M123,119.6h-2.7l-2.7-4.6h0v4.6h-2.2v-11.3h3c2.2,0,3.8,1,3.8,3.4c0,1.4-0.8,2.9-2.3,3.1L123,119.6z     M117.5,113.5h0.3c1.2,0,2.1-0.4,2.1-1.7c0-1.4-0.9-1.7-2.1-1.7h-0.3V113.5z"
         id="path297" /><path
         class="st8"
         d="M124.6,108h1.6l6,7.9h0v-7.6h2.2v11.5h-1.6l-6-7.9h0v7.7h-2.2V108z"
         id="path299" /><path
         class="st8"
         d="M139.1,119.6h-2.2v-11.3h2.2V119.6z"
         id="path301" /><path
         class="st8"
         d="M141.6,108h1.6l6,7.9h0v-7.6h2.2v11.5h-1.6l-6-7.9h0v7.7h-2.2V108z"
         id="path303" /><path
         class="st8"
         d="M163.9,113.6v0.3c0,3.2-1.6,6-5.1,6c-3.3,0-5.4-2.8-5.4-5.9c0-3.2,2.1-6,5.5-6c1.9,0,3.6,1,4.5,2.7l-2,1    c-0.4-1-1.4-1.8-2.6-1.8c-2.1,0-3.2,2.2-3.2,4s1.1,4,3.2,4c1.4,0,2.5-1.2,2.6-2.6H159v-1.8H163.9z"
         id="path305" /></g></g><g
     id="g353"
     transform="translate(0,24.25)"><g
       id="g351"><path
         class="st8"
         d="m 266.3,11.3 h 2.2 v 6.3 c 0,1.4 0.1,3.4 2,3.4 1.9,0 2,-2 2,-3.4 v -6.3 h 2.2 v 6.8 c 0,2.8 -1.2,4.8 -4.2,4.8 -3,0 -4.2,-2.1 -4.2,-4.8 z"
         id="path311"
         inkscape:connector-curvature="0"
         style="fill:#333333" /><path
         class="st8"
         d="m 277.2,11 h 1.6 l 6,7.9 v 0 -7.6 h 2.2 v 11.5 h -1.6 l -6,-7.9 v 0 7.7 h -2.2 z"
         id="path313"
         inkscape:connector-curvature="0"
         style="fill:#333333" /><path
         class="st8"
         d="m 294.8,13.8 c -0.4,-0.6 -1,-0.9 -1.7,-0.9 -0.7,0 -1.4,0.5 -1.4,1.3 0,1.9 4.5,1.1 4.5,4.9 0,2.3 -1.4,3.9 -3.7,3.9 -1.6,0 -2.7,-0.9 -3.5,-2.2 l 1.4,-1.4 c 0.3,0.9 1.1,1.6 2,1.6 0.9,0 1.5,-0.8 1.5,-1.6 0,-1.2 -1.1,-1.5 -2,-1.8 -1.5,-0.6 -2.5,-1.3 -2.5,-3.1 0,-1.9 1.4,-3.4 3.3,-3.4 1,0 2.4,0.5 3.1,1.3 z"
         id="path315"
         inkscape:connector-curvature="0"
         style="fill:#333333" /><path
         class="st8"
         d="m 298.2,11.3 h 2.2 v 6.3 c 0,1.4 0.1,3.4 2,3.4 1.9,0 2,-2 2,-3.4 v -6.3 h 2.2 v 6.8 c 0,2.8 -1.2,4.8 -4.2,4.8 -3,0 -4.2,-2.1 -4.2,-4.8 z"
         id="path317"
         inkscape:connector-curvature="0"
         style="fill:#333333" /><path
         class="st8"
         d="m 311.3,22.6 h -2.2 V 11.3 h 3 c 2.4,0 3.9,0.9 3.9,3.5 0,2.4 -1.3,3.6 -3.6,3.6 h -1.1 v 4.2 z m 0,-6 h 0.5 c 1.3,0 2,-0.3 2,-1.8 0,-1.5 -0.8,-1.7 -2.1,-1.7 h -0.4 z"
         id="path319"
         inkscape:connector-curvature="0"
         style="fill:#333333" /><path
         class="st8"
         d="m 320.1,13.3 v 2.5 h 3.5 v 1.9 h -3.5 v 3.1 h 3.6 v 1.9 h -5.8 V 11.3 h 5.8 v 1.9 h -3.6 z"
         id="path321"
         inkscape:connector-curvature="0"
         style="fill:#333333" /><path
         class="st8"
         d="m 333.8,22.6 h -2.7 L 328.4,18 v 0 4.6 h -2.2 V 11.3 h 3 c 2.2,0 3.8,1 3.8,3.4 0,1.4 -0.8,2.9 -2.3,3.1 z m -5.5,-6.1 h 0.3 c 1.2,0 2.1,-0.4 2.1,-1.7 0,-1.4 -0.9,-1.7 -2.1,-1.7 h -0.3 z"
         id="path323"
         inkscape:connector-curvature="0"
         style="fill:#333333" /><path
         class="st8"
         d="m 339.4,19 v 0 l 2.5,-7.6 h 2.4 L 340,22.9 h -1.3 l -4.3,-11.6 h 2.4 z"
         id="path325"
         inkscape:connector-curvature="0"
         style="fill:#333333" /><path
         class="st8"
         d="m 348.1,22.6 h -2.2 V 11.3 h 2.2 z"
         id="path327"
         inkscape:connector-curvature="0"
         style="fill:#333333" /><path
         class="st8"
         d="m 355.9,13.8 c -0.4,-0.6 -1,-0.9 -1.7,-0.9 -0.7,0 -1.4,0.5 -1.4,1.3 0,1.9 4.5,1.1 4.5,4.9 0,2.3 -1.4,3.9 -3.7,3.9 -1.6,0 -2.7,-0.9 -3.5,-2.2 l 1.4,-1.4 c 0.3,0.9 1.1,1.6 2,1.6 0.9,0 1.5,-0.8 1.5,-1.6 0,-1.2 -1.1,-1.5 -2,-1.8 -1.5,-0.6 -2.5,-1.3 -2.5,-3.1 0,-1.9 1.4,-3.4 3.3,-3.4 1,0 2.4,0.5 3.1,1.3 z"
         id="path329"
         inkscape:connector-curvature="0"
         style="fill:#333333" /><path
         class="st8"
         d="m 361.6,13.3 v 2.5 h 3.5 v 1.9 h -3.5 v 3.1 h 3.6 v 1.9 h -5.8 V 11.3 h 5.8 v 1.9 h -3.6 z"
         id="path331"
         inkscape:connector-curvature="0"
         style="fill:#333333" /><path
         class="st8"
         d="m 367.6,11.3 h 3.2 c 3.3,0 5.5,2.4 5.5,5.7 0,3.2 -2.2,5.6 -5.5,5.6 h -3.1 V 11.3 Z m 2.2,9.4 h 0.4 c 2.7,0 3.8,-1.5 3.8,-3.7 0,-2.5 -1.3,-3.7 -3.8,-3.7 h -0.4 z"
         id="path333"
         inkscape:connector-curvature="0"
         style="fill:#333333" /><path
         class="st8"
         d="m 288.7,37.7 h 3.1 v 1.9 h -5.3 V 28.3 h 2.2 z"
         id="path335"
         inkscape:connector-curvature="0"
         style="fill:#333333" /><path
         class="st8"
         d="m 295.7,30.3 v 2.5 h 3.5 v 1.9 h -3.5 v 3.1 h 3.6 v 1.9 h -5.8 V 28.3 h 5.8 v 1.9 h -3.6 z"
         id="path337"
         inkscape:connector-curvature="0"
         style="fill:#333333" /><path
         class="st8"
         d="m 304,37.3 -0.9,2.4 h -2.3 l 4.4,-11.6 h 1.7 l 4.3,11.6 h -2.4 l -0.9,-2.4 z m 1.9,-5.9 v 0 l -1.3,4.1 h 2.7 z"
         id="path339"
         inkscape:connector-curvature="0"
         style="fill:#333333" /><path
         class="st8"
         d="m 320.4,39.6 h -2.7 L 315,35 v 0 4.6 h -2.2 V 28.3 h 3 c 2.2,0 3.8,1 3.8,3.4 0,1.4 -0.8,2.9 -2.3,3.1 z m -5.5,-6.1 h 0.3 c 1.2,0 2.1,-0.4 2.1,-1.7 0,-1.4 -0.9,-1.7 -2.1,-1.7 h -0.3 z"
         id="path341"
         inkscape:connector-curvature="0"
         style="fill:#333333" /><path
         class="st8"
         d="m 322,28 h 1.6 l 6,7.9 v 0 -7.6 h 2.2 v 11.5 h -1.6 l -6,-7.9 v 0 7.7 H 322 Z"
         id="path343"
         inkscape:connector-curvature="0"
         style="fill:#333333" /><path
         class="st8"
         d="m 336.5,39.6 h -2.2 V 28.3 h 2.2 z"
         id="path345"
         inkscape:connector-curvature="0"
         style="fill:#333333" /><path
         class="st8"
         d="m 339,28 h 1.6 l 6,7.9 v 0 -7.6 h 2.2 v 11.5 h -1.6 l -6,-7.9 v 0 7.7 H 339 Z"
         id="path347"
         inkscape:connector-curvature="0"
         style="fill:#333333" /><path
         class="st8"
         d="m 361.3,33.6 v 0.3 c 0,3.2 -1.6,6 -5.1,6 -3.3,0 -5.4,-2.8 -5.4,-5.9 0,-3.2 2.1,-6 5.5,-6 1.9,0 3.6,1 4.5,2.7 l -2,1 c -0.5,-1 -1.4,-1.8 -2.6,-1.8 -2.1,0 -3.2,2.2 -3.2,4 0,1.8 1.1,4 3.2,4 1.4,0 2.5,-1.2 2.6,-2.6 h -2.4 v -1.8 h 4.9 z"
         id="path349"
         inkscape:connector-curvature="0"
         style="fill:#333333" /></g></g><g
     id="g393"
     transform="translate(0,26)"><g
       id="g391"><path
         class="st8"
         d="m 281.3,140 c -0.4,-0.6 -1,-0.9 -1.7,-0.9 -0.7,0 -1.4,0.5 -1.4,1.3 0,1.9 4.5,1.1 4.5,4.9 0,2.3 -1.4,3.9 -3.7,3.9 -1.6,0 -2.7,-0.9 -3.5,-2.2 l 1.4,-1.4 c 0.3,0.9 1.1,1.6 2,1.6 0.9,0 1.5,-0.8 1.5,-1.6 0,-1.2 -1.1,-1.5 -2,-1.8 -1.5,-0.6 -2.5,-1.3 -2.5,-3.1 0,-1.9 1.4,-3.4 3.3,-3.4 1,0 2.4,0.5 3.1,1.3 z"
         id="path355"
         inkscape:connector-curvature="0"
         style="fill:#333333" /><path
         class="st8"
         d="m 284.7,137.5 h 2.2 v 6.3 c 0,1.4 0.1,3.4 2,3.4 1.9,0 2,-2 2,-3.4 v -6.3 h 2.2 v 6.8 c 0,2.8 -1.2,4.8 -4.2,4.8 -3,0 -4.2,-2.1 -4.2,-4.8 z"
         id="path357"
         inkscape:connector-curvature="0"
         style="fill:#333333" /><path
         class="st8"
         d="m 297.7,148.9 h -2.2 v -11.3 h 3 c 2.4,0 3.9,0.9 3.9,3.5 0,2.4 -1.3,3.6 -3.6,3.6 h -1.1 z m 0,-6.1 h 0.5 c 1.3,0 2,-0.3 2,-1.8 0,-1.5 -0.8,-1.7 -2.1,-1.7 h -0.4 z"
         id="path359"
         inkscape:connector-curvature="0"
         style="fill:#333333" /><path
         class="st8"
         d="m 306.5,139.5 v 2.5 h 3.5 v 1.9 h -3.5 v 3.1 h 3.6 v 1.9 h -5.8 v -11.3 h 5.8 v 1.9 z"
         id="path361"
         inkscape:connector-curvature="0"
         style="fill:#333333" /><path
         class="st8"
         d="m 320.2,148.9 h -2.7 l -2.7,-4.6 v 0 4.6 h -2.2 v -11.3 h 3 c 2.2,0 3.8,1 3.8,3.4 0,1.4 -0.8,2.9 -2.3,3.1 z m -5.4,-6.2 h 0.3 c 1.2,0 2.1,-0.4 2.1,-1.7 0,-1.4 -0.9,-1.7 -2.1,-1.7 h -0.3 z"
         id="path363"
         inkscape:connector-curvature="0"
         style="fill:#333333" /><path
         class="st8"
         d="m 325.9,145.2 v 0 l 2.5,-7.6 h 2.4 l -4.4,11.6 h -1.3 l -4.3,-11.6 h 2.4 z"
         id="path365"
         inkscape:connector-curvature="0"
         style="fill:#333333" /><path
         class="st8"
         d="m 334.5,148.9 h -2.2 v -11.3 h 2.2 z"
         id="path367"
         inkscape:connector-curvature="0"
         style="fill:#333333" /><path
         class="st8"
         d="m 342.3,140 c -0.4,-0.6 -1,-0.9 -1.7,-0.9 -0.7,0 -1.4,0.5 -1.4,1.3 0,1.9 4.5,1.1 4.5,4.9 0,2.3 -1.4,3.9 -3.7,3.9 -1.6,0 -2.7,-0.9 -3.5,-2.2 l 1.4,-1.4 c 0.3,0.9 1.1,1.6 2,1.6 0.9,0 1.5,-0.8 1.5,-1.6 0,-1.2 -1.1,-1.5 -2,-1.8 -1.5,-0.6 -2.5,-1.3 -2.5,-3.1 0,-1.9 1.4,-3.4 3.3,-3.4 1,0 2.4,0.5 3.1,1.3 z"
         id="path369"
         inkscape:connector-curvature="0"
         style="fill:#333333" /><path
         class="st8"
         d="m 348,139.5 v 2.5 h 3.5 v 1.9 H 348 v 3.1 h 3.6 v 1.9 h -5.8 v -11.3 h 5.8 v 1.9 z"
         id="path371"
         inkscape:connector-curvature="0"
         style="fill:#333333" /><path
         class="st8"
         d="m 354,137.5 h 3.1 c 3.3,0 5.5,2.4 5.5,5.7 0,3.2 -2.3,5.6 -5.5,5.6 H 354 Z m 2.2,9.4 h 0.4 c 2.7,0 3.8,-1.5 3.8,-3.7 0,-2.5 -1.3,-3.7 -3.8,-3.7 h -0.4 z"
         id="path373"
         inkscape:connector-curvature="0"
         style="fill:#333333" /><path
         class="st8"
         d="m 286.7,163.9 h 3.1 v 1.9 h -5.3 v -11.3 h 2.2 z"
         id="path375"
         inkscape:connector-curvature="0"
         style="fill:#333333" /><path
         class="st8"
         d="m 293.7,156.5 v 2.5 h 3.5 v 1.9 h -3.5 v 3.1 h 3.6 v 1.9 h -5.8 v -11.3 h 5.8 v 1.9 z"
         id="path377"
         inkscape:connector-curvature="0"
         style="fill:#333333" /><path
         class="st8"
         d="m 302,163.5 -0.9,2.4 h -2.3 l 4.4,-11.6 h 1.7 l 4.3,11.6 h -2.4 l -0.9,-2.4 z m 1.9,-5.9 v 0 l -1.3,4.1 h 2.7 z"
         id="path379"
         inkscape:connector-curvature="0"
         style="fill:#333333" /><path
         class="st8"
         d="m 318.4,165.9 h -2.7 l -2.7,-4.6 v 0 4.6 h -2.2 v -11.3 h 3 c 2.2,0 3.8,1 3.8,3.4 0,1.4 -0.8,2.9 -2.3,3.1 z m -5.5,-6.2 h 0.3 c 1.2,0 2.1,-0.4 2.1,-1.7 0,-1.4 -0.9,-1.7 -2.1,-1.7 h -0.3 z"
         id="path381"
         inkscape:connector-curvature="0"
         style="fill:#333333" /><path
         class="st8"
         d="m 320,154.2 h 1.6 l 6,7.9 v 0 -7.6 h 2.2 V 166 h -1.6 l -6,-7.9 v 0 7.7 H 320 Z"
         id="path383"
         inkscape:connector-curvature="0"
         style="fill:#333333" /><path
         class="st8"
         d="m 334.5,165.9 h -2.2 v -11.3 h 2.2 z"
         id="path385"
         inkscape:connector-curvature="0"
         style="fill:#333333" /><path
         class="st8"
         d="m 337,154.2 h 1.6 l 6,7.9 v 0 -7.6 h 2.2 V 166 h -1.6 l -6,-7.9 v 0 7.7 H 337 Z"
         id="path387"
         inkscape:connector-curvature="0"
         style="fill:#333333" /><path
         class="st8"
         d="m 359.3,159.8 v 0.3 c 0,3.2 -1.6,6 -5.1,6 -3.3,0 -5.4,-2.8 -5.4,-5.9 0,-3.2 2.1,-6 5.5,-6 1.9,0 3.6,1 4.5,2.7 l -2,1 c -0.4,-1 -1.4,-1.8 -2.6,-1.8 -2.1,0 -3.2,2.2 -3.2,4 0,1.8 1.1,4 3.2,4 1.4,0 2.5,-1.2 2.6,-2.6 h -2.4 v -1.8 h 4.9 z"
         id="path389"
         inkscape:connector-curvature="0"
         style="fill:#333333" /></g></g><g
     id="g417"><g
       id="g415"><path
         class="st8"
         d="M491.1,41.5c-0.6-0.8-1.5-1.2-2.5-1.2c-2.1,0-3.3,2-3.3,3.9c0,1.9,1.3,3.8,3.3,3.8c0.9,0,1.9-0.5,2.5-1.2v2.6    c-0.8,0.4-1.7,0.7-2.6,0.7c-3.2,0-5.5-2.7-5.5-5.9c0-3.2,2.3-6,5.6-6c0.9,0,1.8,0.2,2.5,0.7V41.5z"
         id="path395" /><path
         class="st8"
         d="M495.7,47.9h3.1v1.9h-5.3V38.5h2.2V47.9z"
         id="path397" /><path
         class="st8"
         d="M500.4,38.5h2.2v6.3c0,1.4,0.1,3.4,2,3.4s2-2,2-3.4v-6.3h2.2v6.8c0,2.8-1.2,4.8-4.2,4.8c-3,0-4.2-2.1-4.2-4.8    V38.5z"
         id="path399" /><path
         class="st8"
         d="M516.5,41c-0.4-0.6-1-0.9-1.7-0.9c-0.7,0-1.4,0.5-1.4,1.3c0,1.9,4.5,1.1,4.5,4.9c0,2.3-1.4,3.9-3.7,3.9    c-1.6,0-2.7-0.9-3.5-2.2l1.4-1.4c0.3,0.9,1.1,1.6,2,1.6c0.9,0,1.5-0.8,1.5-1.6c0-1.2-1.1-1.5-2-1.8c-1.5-0.6-2.5-1.3-2.5-3.1    c0-1.9,1.4-3.4,3.3-3.4c1,0,2.4,0.5,3.1,1.3L516.5,41z"
         id="path401" /><path
         class="st8"
         d="M523.7,49.8h-2.2v-9.4h-2.3v-1.9h6.8v1.9h-2.3V49.8z"
         id="path403" /><path
         class="st8"
         d="M529.9,40.4v2.5h3.5v1.9h-3.5v3.1h3.6v1.9h-5.8V38.5h5.8v1.9H529.9z"
         id="path405" /><path
         class="st8"
         d="M543.5,49.8h-2.7l-2.7-4.6h0v4.6h-2.2V38.5h3c2.2,0,3.8,1,3.8,3.4c0,1.4-0.8,2.9-2.3,3.1L543.5,49.8z     M538.1,43.7h0.3c1.2,0,2.1-0.4,2.1-1.7c0-1.4-0.9-1.7-2.1-1.7h-0.3V43.7z"
         id="path407" /><path
         class="st8"
         d="M547.4,49.8h-2.2V38.5h2.2V49.8z"
         id="path409" /><path
         class="st8"
         d="M549.9,38.2h1.6l6,7.9h0v-7.6h2.2V50h-1.6l-6-7.9h0v7.7h-2.2V38.2z"
         id="path411" /><path
         class="st8"
         d="M572.1,43.8v0.3c0,3.2-1.6,6-5.1,6c-3.3,0-5.4-2.8-5.4-5.9c0-3.2,2.1-6,5.5-6c1.9,0,3.6,1,4.5,2.7l-2,1    c-0.4-1-1.4-1.8-2.6-1.8c-2.1,0-3.2,2.2-3.2,4s1.1,4,3.2,4c1.4,0,2.5-1.2,2.6-2.6h-2.4v-1.8H572.1z"
         id="path413" /></g></g><g
     id="g449"><g
       id="g447"><path
         class="st8"
         d="M476.5,122.2c-0.6-0.8-1.5-1.2-2.5-1.2c-2.1,0-3.3,2-3.3,3.9c0,1.9,1.3,3.8,3.3,3.8c0.9,0,1.9-0.5,2.5-1.2    v2.6c-0.8,0.4-1.7,0.7-2.6,0.7c-3.2,0-5.5-2.7-5.5-5.9c0-3.2,2.3-6,5.6-6c0.9,0,1.8,0.2,2.5,0.7V122.2z"
         id="path419" /><path
         class="st8"
         d="M481.1,128.6h3.1v1.9h-5.3v-11.3h2.2V128.6z"
         id="path421" /><path
         class="st8"
         d="M488.1,128.1l-0.9,2.4h-2.3l4.4-11.6h1.7l4.3,11.6h-2.4l-0.9-2.4H488.1z M490,122.2L490,122.2l-1.3,4.1h2.7    L490,122.2z"
         id="path423" /><path
         class="st8"
         d="M502.2,121.7c-0.4-0.6-1-0.9-1.7-0.9c-0.7,0-1.4,0.5-1.4,1.3c0,1.9,4.5,1.1,4.5,4.9c0,2.3-1.4,3.9-3.7,3.9    c-1.6,0-2.7-0.9-3.5-2.2l1.4-1.4c0.3,0.9,1.1,1.6,2,1.6c0.9,0,1.5-0.8,1.5-1.6c0-1.2-1.1-1.5-2-1.8c-1.5-0.6-2.5-1.3-2.5-3.1    c0-1.9,1.4-3.4,3.3-3.4c1,0,2.4,0.5,3.1,1.3L502.2,121.7z"
         id="path425" /><path
         class="st8"
         d="M511,121.7c-0.4-0.6-1-0.9-1.7-0.9c-0.7,0-1.4,0.5-1.4,1.3c0,1.9,4.5,1.1,4.5,4.9c0,2.3-1.4,3.9-3.7,3.9    c-1.6,0-2.7-0.9-3.5-2.2l1.4-1.4c0.3,0.9,1.1,1.6,2,1.6c0.9,0,1.5-0.8,1.5-1.6c0-1.2-1.1-1.5-2-1.8c-1.5-0.6-2.5-1.3-2.5-3.1    c0-1.9,1.4-3.4,3.3-3.4c1,0,2.4,0.5,3.1,1.3L511,121.7z"
         id="path427" /><path
         class="st8"
         d="M516.6,130.5h-2.2v-11.3h2.2V130.5z"
         id="path429" /><path
         class="st8"
         d="M521.3,121.1v2.5h3.2v1.9h-3.2v5h-2.2v-11.3h5.6v1.9H521.3z"
         id="path431" /><path
         class="st8"
         d="M529.2,130.5H527v-11.3h2.2V130.5z"
         id="path433" /><path
         class="st8"
         d="M539.3,122.2c-0.6-0.8-1.5-1.2-2.5-1.2c-2.1,0-3.3,2-3.3,3.9c0,1.9,1.3,3.8,3.3,3.8c0.9,0,1.9-0.5,2.5-1.2    v2.6c-0.8,0.4-1.6,0.7-2.6,0.7c-3.2,0-5.5-2.7-5.5-5.9c0-3.2,2.3-6,5.6-6c0.9,0,1.8,0.2,2.5,0.7V122.2z"
         id="path435" /><path
         class="st8"
         d="M543.9,128.1l-0.9,2.4h-2.3l4.4-11.6h1.7l4.3,11.6h-2.4l-0.9-2.4H543.9z M545.8,122.2L545.8,122.2l-1.3,4.1    h2.7L545.8,122.2z"
         id="path437" /><path
         class="st8"
         d="M555.1,130.5h-2.2v-9.4h-2.3v-1.9h6.8v1.9h-2.3V130.5z"
         id="path439" /><path
         class="st8"
         d="M561.3,130.5h-2.2v-11.3h2.2V130.5z"
         id="path441" /><path
         class="st8"
         d="M568.9,130.8c-3.5,0-5.6-2.6-5.6-6c0-3.4,2.2-5.9,5.6-5.9s5.6,2.6,5.6,5.9    C574.5,128.2,572.3,130.8,568.9,130.8z M568.9,121.1c-2.1,0-3.3,1.8-3.3,3.7c0,1.7,0.9,3.9,3.3,3.9c2.4,0,3.3-2.1,3.3-3.9    C572.2,122.9,571,121.1,568.9,121.1z"
         id="path443" /><path
         class="st8"
         d="M576.5,118.9h1.6l6,7.9h0v-7.6h2.2v11.5h-1.6l-6-7.9h0v7.7h-2.2V118.9z"
         id="path445" /></g></g><g
     id="g473"><g
       id="g471"><path
         class="st8"
         d="M489.4,227.8h-2.7l-2.7-4.6h0v4.6h-2.2v-11.3h3c2.2,0,3.8,1,3.8,3.4c0,1.4-0.8,2.9-2.3,3.1L489.4,227.8z     M484,221.7h0.3c1.2,0,2.1-0.4,2.1-1.7c0-1.4-0.9-1.7-2.1-1.7H484V221.7z"
         id="path451" /><path
         class="st8"
         d="M493.2,218.4v2.5h3.5v1.9h-3.5v3.1h3.6v1.9H491v-11.3h5.8v1.9H493.2z"
         id="path453" /><path
         class="st8"
         d="M509.2,221.8v0.3c0,3.2-1.6,6-5.1,6c-3.3,0-5.4-2.8-5.4-5.9c0-3.2,2.1-6,5.5-6c1.9,0,3.6,1,4.5,2.7l-2,1    c-0.4-1-1.4-1.8-2.6-1.8c-2.1,0-3.2,2.2-3.2,4s1.1,4,3.2,4c1.4,0,2.5-1.2,2.6-2.6h-2.4v-1.8H509.2z"
         id="path455" /><path
         class="st8"
         d="M518.9,227.8h-2.7l-2.7-4.6h0v4.6h-2.2v-11.3h3c2.2,0,3.8,1,3.8,3.4c0,1.4-0.8,2.9-2.3,3.1L518.9,227.8z     M513.4,221.7h0.3c1.2,0,2.1-0.4,2.1-1.7c0-1.4-0.9-1.7-2.1-1.7h-0.3V221.7z"
         id="path457" /><path
         class="st8"
         d="M522.7,218.4v2.5h3.5v1.9h-3.5v3.1h3.6v1.9h-5.8v-11.3h5.8v1.9H522.7z"
         id="path459" /><path
         class="st8"
         d="M534.1,219c-0.4-0.6-1-0.9-1.7-0.9c-0.7,0-1.4,0.5-1.4,1.3c0,1.9,4.5,1.1,4.5,4.9c0,2.3-1.4,3.9-3.7,3.9    c-1.6,0-2.7-0.9-3.5-2.2l1.4-1.4c0.3,0.9,1.1,1.7,2,1.7c0.9,0,1.5-0.8,1.5-1.6c0-1.2-1.1-1.5-2-1.8c-1.5-0.6-2.5-1.3-2.5-3.1    c0-1.9,1.4-3.4,3.3-3.4c1,0,2.4,0.5,3.1,1.3L534.1,219z"
         id="path461" /><path
         class="st8"
         d="M542.8,219c-0.4-0.6-1-0.9-1.7-0.9c-0.7,0-1.4,0.5-1.4,1.3c0,1.9,4.5,1.1,4.5,4.9c0,2.3-1.4,3.9-3.7,3.9    c-1.6,0-2.7-0.9-3.5-2.2l1.4-1.4c0.3,0.9,1.1,1.7,2,1.7c0.9,0,1.5-0.8,1.5-1.6c0-1.2-1.1-1.5-2-1.8c-1.5-0.6-2.5-1.3-2.5-3.1    c0-1.9,1.4-3.4,3.3-3.4c1,0,2.4,0.5,3.1,1.3L542.8,219z"
         id="path463" /><path
         class="st8"
         d="M548.5,227.8h-2.2v-11.3h2.2V227.8z"
         id="path465" /><path
         class="st8"
         d="M556.1,228.1c-3.5,0-5.6-2.6-5.6-6c0-3.4,2.2-5.9,5.6-5.9s5.6,2.6,5.6,5.9    C561.7,225.4,559.5,228.1,556.1,228.1z M556.1,218.3c-2.1,0-3.3,1.8-3.3,3.7c0,1.7,0.9,3.9,3.3,3.9c2.4,0,3.3-2.1,3.3-3.9    C559.4,220.2,558.2,218.3,556.1,218.3z"
         id="path467" /><path
         class="st8"
         d="M563.7,216.2h1.6l6,7.9h0v-7.6h2.2V228h-1.6l-6-7.9h0v7.7h-2.2V216.2z"
         id="path469" /></g></g></svg>